v -9.0767148280049054e-05 1.3119552658616429e-01 2.4712424097957002e-03
v -2.8733201558762047e-02 1.2502698750228131e-01 4.0342405349293236e-03
v -1.1095780986202092e-02 1.2951673531449159e-01 2.2289433145386846e-02
v -7.2064021286162600e-02 1.4192341983334147e-01 -8.5324601497709061e-03
v -6.4109532893879884e-02 1.4622722611519720e-01 -1.8247976256910374e-02
v -6.3930773043219299e-02 1.4191094362817330e-01 -7.4745842201953856e-03
v -8.9319279428591081e-02 9.7550194524839443e-02 2.1379736465345436e-02
v -8.2974795659973913e-02 1.0825021957381024e-01 2.6704109727207020e-02
v -8.6626348039828022e-02 1.0894344780720781e-01 1.6016933701167024e-02
v -1.4756555041429151e-02 7.2391610439197659e-02 5.5257992207291801e-02
v -1.8973296132324693e-02 8.2079339936756576e-02 5.7855268992505836e-02
v -2.0298202235196523e-02 6.8838196896836026e-02 5.1515293778063846e-02
v -1.6473547523151381e-02 1.2178289187285637e-01 3.3519129929578874e-02
v -2.7586657416478817e-02 1.2538731115995813e-01 1.6060617485477543e-02
v -2.8316312702558896e-02 1.1829044830909384e-01 3.0614134670601836e-02
v -8.9781702276141517e-02 8.9250626891064000e-02 1.3912678231793077e-02
v -8.7540046552293124e-02 9.3329541061551599e-02 4.9095494161189484e-03
v -8.7467488440409233e-02 8.6287342363479042e-02 2.1108932169048578e-03
v 9.5926057830689627e-03 1.3078682406750711e-01 2.2998048161874854e-02
v 5.4089512181898662e-02 7.3344396012962956e-02 1.9713124750672537e-02
v 5.9562673771544297e-02 6.7655169033754944e-02 2.0177411025201254e-02
v 5.8365678419595939e-02 7.2398095212403202e-02 1.0502539293435718e-02
v -6.0657890474454697e-02 1.5346251500083599e-01 3.3305700093742487e-02
v -5.9769353124115410e-02 1.4742042513716466e-01 3.6720000408288316e-02
v -5.4977562853488003e-02 1.5278101445583678e-01 2.7488508129572695e-02
v -5.5935217034600915e-02 1.5578998300852059e-01 1.1908670124397716e-02
v -5.0737122699191763e-02 1.4989665375523206e-01 1.2802294051879414e-02
v -8.2157545994268708e-02 1.2342367661750285e-01 5.0688972921999052e-02
v -7.6948195943165848e-02 1.2997051057714293e-01 5.3413900640213556e-02
v -8.4659267496907789e-02 1.3004174610536184e-01 5.0575257876004760e-02
v -9.1448852696870309e-02 1.3446612803186095e-01 1.9180438649158520e-02
v -8.4843908466201282e-02 1.4331920115692329e-01 5.1754746518524967e-03
v -9.2693514663313728e-02 1.3024850044689090e-01 1.2133082147611400e-02
v -5.0477228616748894e-02 4.6604280932861397e-02 1.7517075068635264e-02
v -5.3338070087837926e-02 4.8749037728047472e-02 2.7075419840642847e-02
v -5.2637947055148092e-02 5.7527903729421535e-02 2.2819172239420711e-02
v 5.3197163899998970e-02 6.8053267363580583e-02 2.6643101386820231e-02
v 4.5589106110206057e-02 7.0066690828168840e-02 2.3169653923556792e-02
v -6.6375173078353431e-02 1.8167837417057556e-01 -5.8645845010154539e-02
v -7.3405139482742382e-02 1.8032979090448162e-01 -5.4875597487631503e-02
v -7.6259258990132014e-02 1.7928434077827438e-01 -4.9346075433127995e-02
v -8.2461677229282881e-02 1.3791505752901770e-01 4.8143697433760430e-02
v -7.3015898922018430e-02 7.2997887383283652e-02 -9.5892732634434499e-03
v -6.3293962135347145e-02 7.7946833338538551e-02 -1.8687860487771723e-02
v -5.9599254956065904e-02 7.0833571056520592e-02 -1.5764367793364199e-02
v -7.9894029876304326e-02 7.1095976462228178e-02 7.9120838005638516e-03
v -7.9055948107554147e-02 7.0214455587287145e-02 1.7166331493655092e-02
v -8.2645142792695706e-02 7.6803073673911065e-02 2.0663250741109113e-02
v -7.5108369972777617e-02 1.5510401403674415e-01 2.1593525718026987e-03
v -6.8622853516269761e-02 1.5522095613584230e-01 1.7183929847628913e-03
v -7.6411209448867867e-02 1.4597666841423701e-01 4.4004475530978554e-02
v -6.3034577184040180e-02 1.0288321615728832e-01 -1.7974139448621151e-02
v -6.9180181267540372e-02 1.1569372270472283e-01 -8.8080290204616482e-03
v -5.5760443305571256e-02 1.1201262375694208e-01 -1.7582541305790605e-02
v -1.1011754292212807e-03 1.2721387518316724e-01 3.0546704492443323e-02
v -7.4430305619005030e-02 1.1677739952942286e-01 5.3351546495778966e-02
v 5.7970022242935348e-02 5.2947715525946862e-02 2.0811649308172916e-02
v 5.3633450084108227e-02 5.8512906838017999e-02 2.9501947570711888e-02
v -6.5718647314042103e-02 1.4692759701815813e-01 4.0215125870981805e-02
v -6.5947130974673349e-02 1.2100266435201890e-01 5.1986678952898616e-02
v 1.6297340024663452e-02 1.2880100475476228e-01 3.0433842385342727e-03
v -6.1325383235393202e-02 1.0167251564437663e-01 4.2388162506611413e-02
v -7.4166103141397807e-02 1.0443925301121412e-01 3.6890655612325900e-02
v -7.2364456137281610e-02 9.2780255075061963e-02 4.1612214248030299e-02
v -1.3249683299605786e-02 4.8009029352924580e-02 4.8396826606404819e-02
v -2.5238234361684271e-04 5.2131579078577954e-02 5.4292262324016953e-02
v -6.0383150778056758e-03 5.4423349611735242e-02 5.3548348027530168e-02
v 6.9862674485713446e-04 4.4385854064287605e-02 4.6130290904481876e-02
v 8.3061789758916999e-03 4.3715658860681954e-02 4.5461522968933965e-02
v -9.2422354437204271e-02 1.1700026554900302e-01 8.5875679923314348e-03
v -9.4970793963313982e-02 1.2262692964067234e-01 2.2258115271542752e-02
v 3.9683955864087933e-02 6.7212636300248180e-02 -1.0757872316403776e-02
v 4.6750341422619003e-02 7.2191820411853846e-02 5.4426807923637615e-03
v 4.2140667867702465e-02 6.3215393788295784e-02 -2.3750603955184999e-03
v -6.7288695399956008e-02 1.0963815344818320e-01 3.7779096425193601e-02
v 9.6525846928101067e-03 5.9919738318394443e-02 5.2846519424967882e-02
v 6.1604927368076922e-03 6.2053216442595892e-02 5.6224649356896694e-02
v -6.1607705296000035e-04 5.8436367112444751e-02 5.4519796482230591e-02
v 4.2694958674905172e-02 7.9472792265097458e-02 -5.8293768512269915e-03
v 7.1038340131102549e-03 7.7536493533327353e-02 5.6454106388712198e-02
v 3.0498926095366310e-03 8.3013959595506934e-02 5.7285243617954791e-02
v 2.4125958289025902e-03 6.9881237260105519e-02 5.5943237689245147e-02
v 2.9112468900534564e-04 9.7442597425007799e-02 5.3519841676907612e-02
v -6.9583853783170340e-03 8.1231894721730272e-02 5.7795157901871473e-02
v -2.2337528238553485e-02 4.5137758465281577e-02 5.3480497221279809e-02
v 1.1814573622957894e-02 6.6328880849744767e-02 5.3863386052719633e-02
v -7.5291863748919746e-02 1.5642321876587251e-01 2.3511390278780540e-02
v -8.8319839801331859e-02 1.5131233483191733e-01 2.5289525322880195e-02
v -7.8523953125660712e-02 1.5235543380376743e-01 3.3566457985091246e-02
v -5.9487046626404694e-02 9.3652746161041092e-02 4.5443252368195637e-02
v -6.5700351202317542e-02 8.5475622163600093e-02 4.5050674035663062e-02
v -5.5422412639868340e-03 6.3032415532277591e-02 5.6566416138002257e-02
v 1.1434499649743829e-02 5.4352811178108196e-02 5.2127017221966936e-02
v 4.3124216746081252e-02 8.9564153413872943e-02 -6.5205992318763343e-03
v 4.6217532524272492e-02 8.8914055307337952e-02 8.1524451596019804e-03
v -3.7503606791704377e-02 1.2213562203571249e-01 2.8279976370019218e-02
v 1.8625245144308401e-02 8.9572260961514522e-02 4.8792698759972157e-02
v 1.6974432773702260e-02 1.0253572578456013e-01 4.6560852821589768e-02
v 9.8411908920466688e-03 9.7634701333368185e-02 4.9224606613720960e-02
v 1.7894063455490511e-03 1.0158605149983617e-01 4.4401106908649200e-02
v 2.9023987510695655e-03 1.1372608256274036e-01 4.1647827093267774e-02
v -1.0234186346579603e-02 1.0871529909745341e-01 4.3562259131566701e-02
v -5.3209581686307086e-02 1.4447533082928274e-01 -4.0131473058209916e-04
v -5.0379125926911704e-02 1.4237809761806888e-01 3.2454496629529769e-03
v -5.6135163381768695e-02 1.3491875028177513e-01 -5.1891083175084566e-03
v -6.0631684785866634e-02 7.4981615270944976e-02 4.1770309244652158e-02
v -5.3635153171718249e-02 9.1175058763508940e-02 4.4942402588513335e-02
v -5.3230934775117238e-03 1.2140551760991053e-01 3.6994383015678894e-02
v -6.9921165579135247e-02 1.6691281247551940e-01 -1.9326949879733636e-02
v -7.2420744179219593e-02 1.5766284346173925e-01 -2.6280901226057446e-03
v -5.5079555416365528e-02 8.0547505967737965e-02 4.4911582358965883e-02
v -1.2148108784772418e-02 9.3129370689944924e-02 5.6171910202126474e-02
v -5.1154363261637872e-02 1.0866272264938474e-01 3.8627545125395110e-02
v -5.5195302542087106e-02 1.1444088991723494e-01 3.5475288965462273e-02
v -6.3133432660136241e-02 1.1270189372198097e-01 3.7197031064146319e-02
v 1.2902296188352008e-02 8.9513066110123898e-02 5.3930691550320230e-02
v -4.4041760689965646e-03 7.3463901675203433e-02 5.9062788353743553e-02
v -4.8840817472570281e-03 6.8868279785814349e-02 5.6832000764569145e-02
v -3.7363421778536791e-02 1.5516041426411964e-01 -9.9739822792645448e-03
v -1.8633892245439671e-02 1.5875200929101280e-01 -8.1204954574447819e-03
v -7.1882433770076512e-02 1.5079237313572266e-01 -4.3013514558026190e-02
v -6.7367372529556338e-02 1.5884151058957899e-01 -5.6335748130664463e-02
v -6.7696037013373483e-02 1.5161143816542563e-01 -4.6001532950590542e-02
v -5.1708524586362388e-02 6.4211627877249516e-02 3.4662692566177468e-02
v 4.1644793423908762e-02 1.0247585200830021e-01 8.6312101844035331e-04
v 3.6589836208091676e-02 1.0233337392070620e-01 -1.0018050476638731e-02
v 3.0695462431347669e-02 1.1523706580247442e-01 -5.9410089782323703e-03
v -1.1363858087441607e-02 1.0131369392164924e-01 4.3902362627505832e-02
v -4.8011052190674031e-02 8.6416218706198866e-02 4.5472469712380045e-02
v -4.8522856742000728e-02 9.6803122976697825e-02 4.4214186429212148e-02
v -4.7203159829911426e-02 7.3912086156374360e-02 4.2246481504229612e-02
v 4.0789612806290662e-02 6.1598520632282799e-02 2.9624323084586783e-02
v 4.6675044907350041e-02 5.8268133271457384e-02 3.2264165085035004e-02
v -2.7776181248374839e-02 3.7714664758407311e-02 2.0688437948852792e-02
v -3.5894182617034191e-02 3.4529522075906885e-02 3.4625761757077933e-02
v -2.9561509530474608e-02 3.4165881873573535e-02 1.5519918786070248e-02
v -5.5066405998512230e-02 4.1660061283354838e-02 4.7156479013773157e-02
v -4.7723707662195435e-02 5.1458357309209668e-02 3.7201255618044340e-02
v -5.1381653966361705e-02 4.9990671391957328e-02 3.4907306313026777e-02
v -9.2853333612171324e-02 1.1437296718402745e-01 1.7235901964285465e-02
v -4.8342304529694076e-02 1.1868783688703222e-01 3.0460780060323003e-02
v -4.5811069318983121e-02 1.5426559738451245e-01 8.5950819410851691e-03
v -4.4869215741491365e-02 1.6809487641068491e-01 2.7096087658657155e-03
v 1.9362762914915819e-02 9.2834972393670695e-02 -2.4031858307867186e-02
v 1.2800826640785093e-02 9.7443506832575771e-02 -2.3633187727608647e-02
v 1.6885980432631904e-02 1.0183313660995737e-01 -2.2439211245695475e-02
v 2.3360287508251049e-02 1.0543982317862112e-01 4.0448006502155687e-02
v 2.1134533233565317e-02 1.2084450023680357e-01 3.2132216617240188e-02
v 1.3590516419412148e-02 1.2134868420214427e-01 3.4700030430810012e-02
v -3.8907586325292308e-02 4.3849758435547448e-02 4.1335717986069401e-02
v -4.1706301256796030e-02 8.5812140258646752e-02 4.2510871209258033e-02
v -4.4219259592767575e-02 1.0570997326387613e-01 4.1246872787974682e-02
v -3.9050180615012087e-02 1.6728484940986207e-01 2.9951584726615973e-03
v 1.2087917479392441e-02 1.0946417996618489e-01 3.9925036891965880e-02
v -1.3727847663677855e-02 3.9412500191977937e-02 3.9501542739533511e-02
v -3.0391371668758445e-02 3.8651955508871662e-02 3.5616049838194205e-02
v -6.7995513216047590e-02 1.4626939712451364e-01 -2.5370867886220793e-02
v -4.4954788125855266e-02 1.2338320138459168e-01 2.4539110201621760e-02
v -4.2664349270065842e-02 6.6148200968472112e-02 4.1275811861163060e-02
v -3.8643216610517846e-02 8.0676473949394797e-02 4.3417830037636378e-02
v -3.9958011125737901e-02 9.9124130907318558e-02 4.1706270065941450e-02
v 2.5129911976845574e-02 8.1025572241949409e-02 4.8419791720336287e-02
v -4.1214714886352657e-02 5.0522018143742027e-02 3.9583436920298379e-02
v -3.7351664539231402e-02 1.1026612592242542e-01 3.6383063386684913e-02
v -3.6786751992261862e-02 6.5563402187177308e-02 4.1759837786729773e-02
v -3.5583971867476985e-02 8.9639380053709888e-02 4.3580423827616600e-02
v -3.1826477784083200e-02 9.7168629608390705e-02 4.4872101247848468e-02
v 2.2486859609646939e-02 4.5840566808133622e-02 -1.8988952980201670e-02
v 2.2161743300877879e-02 3.8323790356525320e-02 -4.2407725695895113e-03
v 1.7684189965643065e-02 3.5061871558457275e-02 -1.2650494745167712e-02
v -2.8558639625388758e-02 5.3926138877934925e-02 3.5672213799553140e-02
v -3.1530877909401005e-02 1.7547461411705129e-01 -3.1277738714783972e-03
v -3.0353658527459290e-02 7.7742189858948291e-02 4.1079698257633787e-02
v -3.0159734627770583e-02 8.7690365470543569e-02 4.3798124572529573e-02
v -3.0076951583442795e-02 1.0392783867541230e-01 4.1972718847885331e-02
v -2.4871149418811220e-02 8.1500835838724597e-02 5.4063258810986829e-02
v -6.6698647506278741e-02 1.7822412481306887e-01 -6.0209390387671924e-02
v -6.0896693916455760e-02 1.7233635367452324e-01 -6.2168628156397204e-02
v -2.6228915071092578e-02 9.3782049747023533e-02 4.4891586007440989e-02
v -6.4743243063602463e-02 4.1618164820453579e-02 2.7908140841320962e-02
v -5.9673334822150245e-02 3.9347525240280366e-02 2.0521153604802476e-02
v -2.6615825439920710e-02 6.4296278543049687e-02 3.8890992274795130e-02
v -5.8460081961383491e-02 4.6321205135109060e-02 4.2652350552759836e-02
v -2.5812034322110464e-02 4.8736519112281912e-02 4.9150979311432988e-02
v -3.2571585971006373e-02 4.0112215961560858e-02 5.1003276936630086e-02
v -2.1257874990716623e-02 9.7295780002242593e-02 4.5333751562234716e-02
v -1.8738738353234228e-02 5.0132289717614763e-02 4.7114233556425085e-02
v -2.3308206115783259e-02 5.1695803187891680e-02 4.2748640661125811e-02
v -6.5837403807805089e-02 1.7206115864031629e-01 -4.4292902683736805e-02
v -6.2833687033584162e-02 1.7875441314570167e-01 -5.8857265960383418e-02
v 3.3022679881204241e-02 3.8652996611960755e-02 2.5191880623955491e-02
v 4.2079460043146458e-02 4.7962434729772831e-02 3.2399223868524507e-02
v 3.4891207443962069e-02 5.1389585271899990e-02 3.2086984612147332e-02
v -8.6737862482667918e-02 8.0364183848820395e-02 1.3023769762225548e-02
v -8.0328608535065571e-02 7.5172628999117141e-02 -3.0036288879621369e-03
v -7.5822027933214242e-02 1.6347223581986353e-01 -1.6856200272514919e-02
v -4.0422993013362239e-02 7.3402794900898280e-02 -1.8024434475842701e-02
v -3.5400424531473136e-02 7.7638130077638381e-02 -2.0528923013186508e-02
v -3.2896742963382353e-02 6.0995710614105289e-02 -1.3221847779105162e-02
v -6.3532900095637376e-02 4.5521866925240413e-02 3.4591762212869012e-02
v -1.1326482307090656e-02 9.8701483003651100e-02 5.0456532457511687e-02
v 6.1447062040191097e-02 6.1657555063069712e-02 8.7317555708126427e-03
v 5.7170973783047668e-02 6.8775099707725371e-02 3.2725344059890489e-03
v -1.4645500944967452e-02 8.6150236416133952e-02 5.7183039846622888e-02
v -2.2833349586880360e-02 9.0783215448493368e-02 5.3289831220845373e-02
v -7.2224983673458615e-02 1.4448712295672569e-01 -1.4742908491316736e-02
v -1.5474224828685287e-02 6.2619545922815614e-02 5.3350764123427701e-02
v 4.5592495393013070e-02 4.2031209494022427e-02 3.6566256698299885e-03
v 5.6806417390583515e-02 5.0660820441562900e-02 6.3550827149754440e-03
v 4.9028048545870256e-02 4.2822739474046558e-02 1.3901394332482183e-02
v 4.2394632595306452e-02 1.0333974885723105e-01 9.0226035163427955e-03
v 2.8346539388118687e-02 1.0987083815197646e-01 3.6274145236588021e-02
v -1.3172801245466081e-02 1.6266127392676658e-01 -1.5458171322138316e-02
v 2.2213463434778279e-02 1.2553122547287848e-01 2.1927202414780210e-02
v 4.5926371663031811e-02 4.7949861225966610e-02 -4.1177224090107349e-03
v 5.3866534731071156e-02 5.8973158676527013e-02 -3.0242600789991505e-03
v 1.9115026260505340e-02 4.8427385799664907e-02 4.2185201344371252e-02
v 1.9437362249775596e-02 4.1530068344436580e-02 4.3677396108356116e-02
v -3.9605091045011781e-02 1.6066864275859680e-01 1.5748997017752486e-03
v 4.9511590840804198e-02 4.5559733457257730e-02 2.3255655704559806e-02
v 3.4809337779238135e-02 7.3354351599937737e-02 3.9256479021117230e-02
v 3.3064748452064106e-02 8.6630173743853012e-02 4.2025630309629261e-02
v -6.9012297033998166e-02 1.3307251652238750e-01 4.8307410508206437e-02
v 1.5093746406926206e-02 7.7663388325649757e-02 5.4090700876244478e-02
v 3.7268582158407497e-02 6.4472204949826153e-02 3.6990316971796541e-02
v -4.3607294265913671e-02 9.2269272829971508e-02 -2.2528209981811084e-02
v -3.9581711576422790e-02 1.0680217501302353e-01 -2.0259616062626638e-02
v -2.7432129057841332e-02 9.4962028548425531e-02 -2.4842936511263427e-02
v -3.4141713581586706e-02 1.0491236244256684e-01 -2.1131497562350846e-02
v -6.9377816372815537e-02 1.1347540018961597e-01 5.0124172686921695e-02
v -6.2800410498682235e-02 1.3742643113462685e-01 3.6123427029265444e-02
v 3.0113453529894075e-02 9.4894523717187623e-02 4.2568200809518210e-02
v 3.8575641305349261e-02 9.1938681584039547e-02 3.5226290725186134e-02
v 1.6142220284477215e-02 3.6380023956659929e-02 4.3592794243829967e-02
v 2.6518142246235065e-02 4.0747934706976845e-02 3.3239698396390467e-02
v -6.1179817738019761e-02 1.2286295292067782e-01 4.3379362079510007e-02
v 2.7417776133821414e-02 4.6318319588976774e-02 3.6981373822261410e-02
v 3.1182318704606932e-02 5.8276597081664119e-02 4.0169510857971651e-02
v -3.4629572276046683e-02 1.5206956836941857e-01 -5.3328672852425492e-04
v -4.9370428455944415e-02 1.4474318287126398e-01 8.6407518424106832e-03
v -1.0010721447988506e-02 1.6695606035845209e-01 -1.7230066768264458e-02
v -1.3570851059047515e-02 1.6312168675743433e-01 -1.1217562873253326e-02
v -5.6666682788836735e-02 1.2508658975925341e-01 4.0399211935569501e-02
v 4.4680123536540245e-02 8.9831715658507338e-02 2.4052278123056822e-02
v -5.4509097149860283e-02 1.3918942867879905e-01 2.9674610774936744e-02
v 2.5898821983694920e-02 6.9869768665641346e-02 4.3758586265818994e-02
v -5.5898973667105598e-02 3.5403828040417980e-02 4.7123948088488833e-02
v -5.8338558859090402e-02 1.4335997052886357e-01 3.2770035020447751e-02
v 2.2795836901871872e-02 6.8508108722035749e-02 -2.6998354322608348e-02
v 3.2070220260149142e-02 7.8352009491827593e-02 -1.9339307939084515e-02
v 2.7831706284988895e-02 6.5614342381051807e-02 -2.1054779454732983e-02
v -2.3323945988145675e-02 1.5981945311745860e-01 -1.7339851891027655e-03
v 1.6905037361180108e-02 3.4709016072821099e-02 3.9480176606296380e-02
v 2.1118245561112683e-05 3.5331999061688879e-02 4.6554476103881359e-02
v 1.0454184288729714e-02 3.5028883650592375e-02 3.5277216703124337e-02
v -4.9291318978392853e-02 1.2855870715495854e-01 3.1127203665642211e-02
v -3.9138554386473269e-02 3.5284354300554432e-02 4.2763041365084214e-02
v 1.8626448572739363e-02 5.4792821152328412e-02 4.7963141637380032e-02
v 2.4939873064151435e-02 5.9181837359816011e-02 4.5224595307361455e-02
v 2.0365551179330654e-02 6.5584183400312177e-02 4.8474738897729901e-02
v -1.9219395800615605e-02 1.6670978310569667e-01 -1.8796788015993861e-02
v -1.3936776751792961e-02 1.8099765790104674e-01 -2.2633565147840810e-02
v -2.1678042884334534e-02 1.8474694222419899e-01 -1.2536749580789264e-02
v -3.2025042714740229e-02 1.6708999424183135e-01 -5.9493521212665755e-03
v -2.7119638341587381e-02 1.8213161088027979e-01 -9.4539836690758321e-03
v 3.1872347280155908e-02 1.1698764707662587e-01 2.5769752087389262e-02
v -4.3236017064107408e-02 1.2722380207353423e-01 1.8194272191693516e-02
v 3.7046781919086912e-02 4.0013176337025821e-02 -1.2355104123002241e-03
v 2.1091303789994506e-02 3.5037163947516763e-02 -6.2190401282559416e-04
v -5.1278066065059261e-02 6.7909128123048820e-02 -1.3233614378086822e-02
v -5.5195838363931972e-02 8.0460945140047632e-02 -2.1121959839804621e-02
v -8.0426584872337989e-02 1.4969610500272187e-01 -1.4581620229719356e-04
v -9.0544380703617353e-02 1.5088950003700949e-01 1.4264712675022394e-02
v 4.7021923631871174e-02 7.3747220344272876e-02 1.6329040876841033e-02
v -6.2362565887777742e-02 1.5585042291980206e-01 -3.5701790010945714e-02
v -6.2139476418289749e-02 1.6473720509545495e-01 -4.6705423927829441e-02
v -2.2482400662090656e-02 3.6357415678053152e-02 5.4081637074500602e-02
v -1.2847252045371356e-02 3.5217969394073040e-02 5.0205720069792563e-02
v -3.7658071903547641e-02 1.5763476260200213e-01 4.8089261237772062e-03
v -3.5494998382382410e-02 3.3889197999388637e-02 -3.0966744099907718e-02
v -4.2801774255131306e-02 3.4022034191572785e-02 -2.7783222413903633e-02
v -3.4580965712127022e-02 4.3313464185172297e-02 -2.9243049910177218e-02
v -4.7820982385015351e-02 1.3644796685561308e-01 1.4957164965442415e-02
v -4.7176648577136465e-02 1.2962590277817010e-01 7.6222997953199090e-04
v 3.8142899691134650e-02 1.0713820726699227e-01 2.5564084599624257e-02
v -7.1363202610886994e-02 1.4697399226181007e-01 -2.5973413418792429e-02
v -7.3915996819596957e-02 1.7461766712901250e-01 -4.0273362771851139e-02
v -7.9407696977745773e-02 1.7286844744285057e-01 -4.4329254513203110e-02
v -7.4148172882998367e-02 7.1013388380479506e-02 3.1252814761095163e-02
v -8.2476499082983490e-02 8.2744572058531321e-02 3.2170062521868090e-02
v 3.2680797999866916e-02 1.1716639287599986e-01 3.8632037965780049e-03
v 2.3977529651454148e-02 1.1406339287251833e-01 -1.2087706513092818e-02
v 9.1810100599107099e-03 1.2233291129601385e-01 -1.2456869558124480e-02
v -3.0099319002318475e-02 5.0387691657623190e-02 -1.9122786370957056e-02
v -4.1483698563839821e-02 4.8002468664237907e-02 -1.1438788656648116e-02
v -3.2805092397710033e-02 5.1180932475120851e-02 -1.0241704759039540e-02
v -9.6732965743741382e-03 1.7933166897414712e-01 -3.0216798833368308e-02
v -9.1575165308212941e-02 1.4023119785253674e-01 1.7400399687061346e-02
v -8.8863833328325786e-02 1.3705068469053919e-01 2.6125025895287774e-02
v -9.1962433606326013e-02 1.4697185040834806e-01 2.2492329140637497e-02
v -6.1461538541774462e-02 1.5839267518111178e-01 -2.1540389885264594e-02
v -4.3214392373738357e-02 1.7171586691041504e-01 -6.2231477859774186e-03
v -6.0917854135067430e-02 1.5581342258348091e-01 5.0929324837512219e-03
v 2.1395199631350038e-02 5.4858349558457649e-02 -2.7224079507010300e-02
v 3.2502009989137846e-02 6.4387785206722462e-02 -1.8036603534134426e-02
v 3.1270068740070614e-02 5.6914243257813080e-02 -1.5940505802909333e-02
v -6.2336192988064150e-02 1.4790944928372596e-01 -5.1004755452712441e-03
v -8.8877677466852573e-02 1.4524745790949053e-01 1.0382858740883297e-02
v -8.5352973405463842e-02 1.0992136370818023e-01 5.7193758536571984e-03
v -8.6856480041489117e-02 1.2314330865148986e-01 -2.4899205397036646e-03
v -3.0780929329082027e-03 1.1287214489335318e-01 -1.9586340808552476e-02
v -1.6829770841762452e-02 1.1535217219941160e-01 -1.6984312631943371e-02
v -6.8712140938480878e-03 1.2610066859445290e-01 -8.1614901700471035e-03
v -3.4377226371766566e-02 1.6584400659025308e-01 -1.5242882023619189e-02
v -3.9998020841922902e-02 6.0173092640955390e-02 -1.1898834112741376e-02
v -8.8539003409178613e-02 1.3435446998440964e-01 3.4777443189622339e-03
v -8.2987301461022137e-02 1.1080755041673568e-01 2.9298683599464036e-02
v 2.7484339932386019e-02 4.9695325616647273e-02 -1.9187845046831117e-02
v 3.0672136301814954e-02 4.8491662896101406e-02 -7.8268612228677859e-03
v 2.0001420270110485e-02 4.3207159733791294e-02 -2.1476433985849308e-02
v -8.6410230210382785e-02 8.7839144458633459e-02 2.5758001232692434e-02
v -4.2130978074817062e-02 3.4149560890632716e-02 2.8255628807464069e-02
v -3.6765309413928561e-02 3.4573288922533661e-02 2.5667281402574581e-02
v -8.9474229930664353e-02 9.9858421122438742e-02 1.0073748116836846e-02
v -8.7083127727539511e-02 8.4328722181673352e-02 1.0999287804946934e-02
v 3.7221316849276501e-02 8.3694275083989370e-02 -1.6596459150464513e-02
v -6.7905313364843803e-02 4.4454767483940012e-02 7.6059555592152299e-03
v -5.8134896021801184e-02 4.7961495714578452e-02 8.3480520985568761e-03
v -5.8221941910820169e-02 4.8438542909940777e-02 1.3983215747086621e-03
v -1.4759180812374347e-02 3.4166705881161608e-02 -2.5256024754896647e-02
v 8.5892689618902486e-03 3.5696080399555886e-02 -2.3088916704171909e-02
v 1.3831560971786790e-02 3.4556701580741665e-02 -1.9460262489382017e-02
v 3.6198608199551438e-02 5.4029530445604483e-02 -6.7337713388390275e-03
v 1.1194773485241069e-02 3.9688110401863111e-02 -2.3284558088721100e-02
v 3.0922612427828140e-02 9.3004692672237030e-02 -1.8951395590628403e-02
v -7.3301862087690128e-02 6.8269976605270982e-02 -1.3172003953649833e-03
v -6.4143377647887648e-02 6.2467067983708019e-02 -3.2461098449951403e-03
v -6.9610490085095650e-02 6.1162352128572052e-02 9.9912558666366939e-03
v -5.5081219954666742e-02 5.6160217214497724e-02 9.2056651065758020e-03
v -5.7702100907374924e-02 5.7998900432664764e-02 3.5453048719314220e-03
v -5.0086987759253021e-02 5.4557772487253554e-02 1.5770319757018432e-02
v -4.2152469319544056e-02 8.2530450363737920e-02 -2.0730792056756993e-02
v -1.9561637672538493e-02 4.5356140409045793e-02 -2.8112358383766245e-02
v -2.7175615825673093e-02 4.9548880034348042e-02 -2.4513452923443382e-02
v -8.9074781515137650e-03 1.6960721958364328e-01 -2.5732266315518212e-02
v -5.2446562125949690e-02 1.4374815861527873e-01 1.9474631031063075e-02
v -3.4180864002662806e-02 8.5390911918753032e-02 -2.4408260267876417e-02
v -5.1715317033173780e-02 6.2290562682275223e-02 3.2046543240800640e-02
v -4.3219161398548263e-02 1.2946049088719588e-01 1.2363257402126078e-02
v -6.1175613777481555e-02 1.4981417174326736e-01 -1.7655209978295146e-03
v -3.7264582085712296e-02 1.2788717619202761e-01 1.9381664567378434e-03
v -6.8281759376051340e-02 9.9930549595112605e-02 -1.5766817529050969e-02
v -3.0187184453431753e-02 1.2188290456528372e-01 -6.5517562949595209e-03
v -9.2807027403065678e-02 1.2493898554139919e-01 3.0281713192684020e-02
v -1.6928175917034018e-02 1.8785199951164022e-01 -2.1467228276425110e-02
v -2.5374793416607373e-02 1.0616316720351805e-01 -2.2924929602185187e-02
v -1.5127970157993838e-02 1.8496406290367939e-01 -2.6812442827628975e-02
v 3.3657055782603210e-02 3.5279616425410436e-02 8.8211513123614502e-03
v -8.1484993831570637e-02 8.2181721661861787e-02 -5.8906931756648037e-03
v -6.7739436333676697e-02 1.3919223827179189e-01 -8.0223667263125964e-03
v -6.4389278936519301e-02 3.5357728186982976e-02 4.2372101983325153e-02
v -2.9434553097654116e-02 7.4728546512569313e-02 -3.4468162201299307e-02
v -2.6875018446933789e-02 8.6067661658227310e-02 -3.6831075503866391e-02
v -2.1400132219205548e-02 7.6839457471923139e-02 -3.9504069148211550e-02
v -6.7285462568605903e-02 3.5078608124478480e-02 3.4239077345239531e-02
v -2.0229637780787981e-02 1.7431411966666274e-01 -2.2227561483050516e-02
v -3.4020442089043916e-02 4.4681614881734333e-02 4.5917943080903995e-02
v -3.2955808330497036e-02 5.0956653830455584e-02 3.7987870179805032e-02
v -7.7102454064542567e-02 1.5441028840634513e-01 -7.0291020413657517e-03
v -7.8383061436767432e-02 1.5895572100928312e-01 -2.1073654869057254e-02
v -7.8604993679037741e-02 1.1124936894339869e-01 4.6233570422287325e-02
v -6.8245874373415602e-02 1.2922180988469681e-01 -9.3328475604684477e-03
v -2.9967549123798620e-02 3.5681167140417837e-02 5.2797804229572073e-02
v -6.1086137951883827e-02 9.6920731726890447e-02 -1.8909158852876293e-02
v -8.6291618534666242e-02 1.1641819052047156e-01 4.8319573110499378e-02
v -7.9600138625516903e-02 1.3576237655178924e-01 -4.6148155043368990e-03
v -9.1534762299555469e-02 1.2226668150695276e-01 4.4483038277149362e-02
v -4.4901467305054704e-02 5.3058142515160632e-02 -1.0742620635762595e-02
v -5.7556693480490279e-02 5.7401779218502501e-02 1.7049030284068404e-02
v -7.2733846451513665e-02 3.6021839955482776e-02 1.7426354842729451e-03
v -7.2852772027715118e-02 3.5806513043801197e-02 8.0865844853562439e-03
v -6.4728217512422317e-02 3.5933588218829450e-02 2.4096588170720898e-02
v -8.3839430569104839e-02 9.5758413386984237e-02 3.0828913301596855e-02
v -6.2420230364755747e-02 3.6241212527470354e-02 1.9917268599351595e-02
v -8.9282170094102969e-02 1.4274674790156422e-01 3.3945937856798350e-02
v -6.2384159011664705e-02 1.6294633131876127e-01 -5.9026516190891637e-02
v -3.3564009586657853e-02 3.4019880377313447e-02 -2.1315060098345506e-02
v 7.6364050047725441e-03 3.4459496317220027e-02 -1.5223210077030635e-02
v -2.7781516624809415e-02 3.8479794235248749e-02 -1.8021752761111037e-02
v -6.1194380107397042e-02 3.4223682862329775e-02 1.9811024801446919e-02
v -4.6999250185899975e-02 4.0881263048938972e-02 -1.2118960835444606e-02
v -5.5866286206582932e-02 4.7379378005105229e-02 -4.7785552335196596e-03
v -9.4064686279757018e-02 1.1946470327680134e-01 3.8923240875170961e-02
v -7.0743420129906309e-02 1.6880340486597234e-01 -5.0005430621269255e-02
v -4.5822893694350501e-03 1.0084547857517488e-01 -2.3617876482178148e-02
v 6.4065523972384342e-03 9.9989057691753966e-02 -2.1763863159456456e-02
v -7.7657173748016395e-02 1.7717533735851718e-01 -5.0516618550483644e-02
v -7.0942920333107826e-02 1.5681894609597166e-01 -4.4372016255707490e-02
v -7.3824875595557393e-02 1.6594193939536495e-01 -4.0836737796328647e-02
v -7.9359648406559971e-02 1.6836539492300268e-01 -3.8615921771120547e-02
v -7.5144656324616352e-02 1.5306646349406586e-01 -1.6253256893341790e-02
v -7.4652191316925451e-02 1.4994985679046702e-01 -3.0140552119920821e-02
v -3.3099424350732765e-02 7.8862301288586581e-02 -2.9592870231906800e-02
v -2.2555917125271635e-02 6.2876167456723447e-02 -3.4619110244419701e-02
v -3.0246567032274470e-02 6.6919857019249337e-02 -2.7660410401961086e-02
v -2.4895783650971719e-02 9.2466754756262176e-02 -3.4166812716753731e-02
v -4.3908901388206925e-02 3.8290343907380377e-02 -2.4548475615840656e-02
v -4.0716084910714830e-02 4.5365129534610873e-02 -2.1790746050430663e-02
v -3.1813676556978837e-02 6.3368058342858358e-02 -1.8126990737405906e-02
v -9.0437362745797126e-02 1.1598995693956562e-01 2.7810181163465984e-02
v -7.6445435744974338e-02 1.4937640265218954e-01 -9.7264886833301097e-03
v -4.8508289854485569e-02 3.3603886442464571e-02 -1.3319398171441866e-02
v -3.4660122601483698e-02 3.3718265553693720e-02 1.1281523826672369e-02
v -4.2483865345148711e-02 3.3689851715804159e-02 -3.7414638735521117e-03
v -2.6118000117261737e-02 1.7915299370417098e-01 -1.7871033845244171e-02
v 5.3971638035017859e-03 3.9141042366061765e-02 -7.1985146069975907e-03
v 3.0513660238614825e-03 3.4030439649131924e-02 3.4293859396035513e-03
v -3.4684459493829205e-03 3.8458086156168275e-02 7.2292887827841443e-03
v -7.6598224066169451e-02 9.5157001488463316e-02 -1.3136079991612235e-02
v -7.3406116947007799e-02 8.3751083307966878e-02 -1.5860823126442901e-02
v -6.8699573655505344e-02 4.2613844143989832e-02 3.5173589013993430e-04
v -6.3914081916020601e-03 1.1051714889251565e-01 -2.2013188850290952e-02
v -1.5362972450457719e-02 1.0583160285696949e-01 -2.2351726226065984e-02
v -5.6470673311562391e-03 9.6166482404548059e-02 -3.2362593772843173e-02
v -8.4428699619915115e-02 9.2219313257296348e-02 -4.7474541952852662e-03
v -8.3814848717362181e-02 1.0151097582172924e-01 -3.2115593194211077e-03
v 1.2761821005139026e-02 1.0541400814363926e-01 -1.9686353565335185e-02
v -2.3672919563565677e-02 1.1448512685751880e-01 -1.6046836803859713e-02
v -3.4995515583287735e-02 1.1528594434029121e-01 -1.5707642315432542e-02
v 2.7085963847204287e-02 1.0372969494374931e-01 -1.6536655208866213e-02
v -7.8424243679446795e-02 1.4795039262065660e-01 -2.7123362037308305e-03
v -1.5205797567871904e-02 1.2500335915149155e-01 -4.4359181067626721e-03
v -6.7812653325610497e-02 3.8768810215928290e-02 -6.1458072816525404e-03
v -5.6456059047386528e-02 6.0474072867650365e-02 -3.9528171134419667e-03
v -4.7748091327781704e-02 1.6491261713618918e-01 -6.6407490401488274e-03
v -1.1838008109928425e-02 9.9790680845748214e-02 -2.4324630546002597e-02
v 1.3075181161342597e-02 8.9526711046984536e-02 -3.0357976408127124e-02
v -5.8106298684296023e-02 1.5349602513808791e-01 -2.1029434530794847e-04
v -7.8782386713518587e-02 1.1212488645119699e-01 -3.3162315786210038e-03
v 2.3817451056486281e-03 1.1440440923676283e-01 -1.9812933150495343e-02
v -5.9519373360062973e-02 3.3851346888582476e-02 -1.0248148962236494e-02
v 1.3543731718582882e-02 1.1225092138237526e-01 -1.7735204195361978e-02
v 4.5662068374764539e-02 5.4588287666280690e-02 -6.5099550278824346e-03
v 5.0698438530971515e-02 6.4846284148150149e-02 -1.9672870043279419e-03
v 2.3865368446540528e-02 8.4185797155310549e-02 -2.5182025100732447e-02
v -2.7141537326621650e-02 3.4123040554531719e-02 -2.9025738890027103e-02
v 3.7885570407249674e-03 9.2297859519079040e-02 -3.3131256595569994e-02
v -1.5262054206302706e-02 9.0426359740873929e-02 -3.7655636554684728e-02
v -5.1019074914377752e-02 1.2001685903797402e-01 -1.3155639265918383e-02
v -5.9465059591452041e-02 1.2103118784975440e-01 -9.1243073990722665e-03
v -5.1337600857898381e-02 1.2781902240012019e-01 -4.2757074112875606e-03
v -4.0986715019658421e-02 1.2469979254572960e-01 -9.5503115358302002e-03
v -4.8188362485304274e-02 1.0858695269116775e-01 -1.8686603322162668e-02
v -4.1265240568563538e-02 1.1637889935561313e-01 -1.5221779382241540e-02
v -5.5245583403285912e-02 9.6905837489612304e-02 -2.2150559900128763e-02
v -5.4201422790305799e-02 1.5103653720188495e-01 -2.6103488449493086e-03
v 3.6210920805830819e-02 4.7057910290633879e-02 -6.2494768853665590e-03
v -7.7894853329745453e-02 1.2317876889465050e-01 -7.3247062230994168e-03
v -4.7789256361669856e-02 6.3869988218699963e-02 -1.3129842074615932e-02
v -8.8745282685469259e-02 1.1160317047822550e-01 3.9648017749903765e-02
v 1.9889394596375912e-02 6.0763035109413478e-02 -2.7071068907543395e-02
v 1.3526814638750341e-02 7.8307529083537553e-02 -3.0444483799664700e-02
v 1.2933499832961791e-02 4.7497374688552453e-02 -2.5997457082998145e-02
v 9.1578063615246428e-03 7.2609515724021870e-02 -3.3324456909407732e-02
v 1.1796458842848695e-02 6.5375352052563729e-02 -3.0680790346042004e-02
v 7.2430465011683624e-03 5.2767059881694396e-02 -3.0085000399039410e-02
v 4.8657335360055461e-03 8.4940249547249519e-02 -3.3703785466753802e-02
v 2.9093208634353878e-03 5.4653026601377629e-02 -3.0620743680819237e-02
v -1.9601853628595407e-03 6.8090539730923327e-02 -3.4510928363210916e-02
v -5.0737720200817538e-03 7.6861246282926995e-02 -3.7196338210807846e-02
v -1.8223370512337868e-03 4.7529245167278293e-02 -3.0393852124780855e-02
v -1.7394805075723972e-03 6.2669183511342139e-02 -3.4715103526753284e-02
v -6.5093988112642437e-03 4.2801170319328292e-02 -2.5634471583296164e-02
v -3.7288012749869255e-03 8.3440677937330732e-02 -3.7534498095542643e-02
v -4.7387670778312879e-03 5.3061993755412130e-02 -3.2068205898200496e-02
v 1.8855826382235045e-02 3.4488304165529414e-02 2.1791129637007390e-03
v 1.1235006078920333e-02 3.4493502137462086e-02 -9.0494048053320186e-03
v -6.9901821805927342e-02 3.3611824059144792e-02 -3.6657884185164248e-03
v -1.3666015674136441e-02 5.5168706727965186e-02 -3.4155600984728737e-02
v -1.5744831613791206e-02 6.7910967773655517e-02 -3.8446845011337195e-02
v 8.0573387313722707e-03 3.4905471115125451e-02 5.0267352208834999e-03
v 5.0423714182550828e-03 3.3808091422458796e-02 1.1602007709938980e-02
v 2.5671446387108384e-02 3.4448286102267849e-02 1.2214828712778628e-02
v 2.2236380127201260e-02 3.4591127308342906e-02 2.0876660244166539e-02
v 2.1607782324000412e-02 3.6658690791776256e-02 1.6088917100846097e-02
v 1.2123778086747444e-02 3.4930092391210039e-02 2.8733871308560158e-02
v 9.8574347596585565e-03 3.4720865034691704e-02 1.9738775679019153e-02
v -2.1593829509298060e-02 3.4922053256741220e-02 4.4805242128925206e-02
v 1.6401819987493443e-02 3.6345394689554854e-02 3.5985171337925511e-03
v 8.2908290789993309e-03 3.9363085933498555e-02 3.2610369059846489e-02
v -7.7112198728323769e-02 1.0809904795762063e-01 3.6148625978027073e-02
v 2.7446955993721623e-04 3.4702935588994975e-02 1.7262291650061715e-02
v -2.5922102691130567e-03 3.8329076909622714e-02 1.9241290293146820e-02
v -2.8628833590516135e-02 3.8067926606029916e-02 5.8468719917979693e-03
v -3.5838147769204833e-02 3.6054512743957857e-02 1.3666403511312781e-02
v 3.7483978971993041e-03 3.8905538846962219e-02 -1.2845740564848952e-02
v -6.9812401613505243e-02 6.2037560953600461e-02 1.8960170427116441e-02
v -5.3103216889565721e-02 3.3562114012025669e-02 1.0987918287004031e-02
v -4.8198461103976881e-02 3.3642966007020297e-02 6.0437930505459463e-03
v -5.3850496422387116e-02 3.3496788188463619e-02 1.9469001808856475e-02
v -4.7046774495309744e-02 3.5889312674787281e-02 8.0707870975469439e-03
v -3.8076896347791885e-02 3.8304897415710110e-02 -8.4318180973283335e-03
f 1 2 3
f 4 5 6
f 7 8 9
f 10 11 12
f 13 14 15
f 16 17 18
f 1 3 19
f 20 21 22
f 23 24 25
f 26 25 27
f 28 29 30
f 31 32 33
f 34 35 36
f 37 20 38
f 39 40 41
f 29 42 30
f 43 44 45
f 46 47 48
f 49 26 50
f 29 51 42
f 52 53 54
f 19 3 55
f 56 29 28
f 57 21 58
f 3 13 55
f 29 59 51
f 56 60 29
f 7 17 16
f 1 19 61
f 62 63 64
f 65 66 67
f 68 69 66
f 70 71 33
f 72 73 74
f 62 75 63
f 76 77 78
f 72 79 73
f 80 81 82
f 81 83 84
f 85 68 65
f 77 86 82
f 87 88 89
f 90 64 91
f 78 77 92
f 93 76 66
f 79 94 95
f 96 15 14
f 90 62 64
f 66 78 67
f 97 98 99
f 100 101 102
f 103 104 105
f 106 107 91
f 101 108 102
f 79 95 73
f 93 66 69
f 109 110 50
f 65 68 66
f 111 107 106
f 84 83 112
f 107 90 91
f 113 75 62
f 114 115 75
f 116 99 83
f 50 110 49
f 82 117 118
f 104 119 120
f 121 122 123
f 90 107 62
f 106 124 111
f 113 114 75
f 125 126 127
f 107 113 62
f 128 100 102
f 82 118 92
f 92 77 82
f 129 107 111
f 130 113 107
f 103 119 104
f 14 13 3
f 99 100 83
f 131 129 111
f 37 132 133
f 134 135 136
f 137 138 139
f 140 71 70
f 113 141 114
f 26 27 142
f 26 142 143
f 144 145 146
f 147 148 149
f 150 138 137
f 151 130 107
f 130 152 113
f 142 153 143
f 100 154 101
f 155 156 134
f 129 151 107
f 152 96 113
f 96 141 113
f 98 147 154
f 4 157 5
f 151 129 131
f 96 158 141
f 154 147 149
f 159 160 131
f 160 151 131
f 130 161 152
f 37 38 132
f 151 161 130
f 162 98 97
f 163 138 150
f 152 164 96
f 19 55 149
f 163 165 159
f 165 160 159
f 152 161 164
f 160 166 151
f 151 166 161
f 166 167 161
f 168 169 170
f 3 2 14
f 15 96 164
f 171 165 163
f 153 172 143
f 173 166 160
f 86 80 82
f 173 165 171
f 165 173 160
f 167 164 161
f 174 167 166
f 173 174 166
f 175 164 167
f 15 164 175
f 98 154 100
f 173 176 174
f 177 178 122
f 82 81 117
f 98 100 99
f 174 179 167
f 180 35 181
f 35 34 181
f 157 123 5
f 171 182 173
f 183 137 139
f 167 179 175
f 85 184 185
f 179 186 175
f 184 187 188
f 39 189 190
f 191 192 193
f 76 78 66
f 46 194 195
f 109 196 110
f 117 81 84
f 197 198 199
f 154 149 101
f 85 187 184
f 102 175 186
f 149 55 101
f 58 37 133
f 200 139 35
f 128 186 201
f 13 15 175
f 22 202 203
f 204 205 11
f 128 102 186
f 206 157 4
f 204 11 10
f 112 205 204
f 13 175 102
f 133 132 193
f 85 65 187
f 187 65 207
f 133 193 192
f 81 116 83
f 208 209 210
f 95 125 211
f 147 212 148
f 10 84 204
f 119 213 120
f 19 214 61
f 108 13 102
f 78 92 67
f 92 118 207
f 84 112 204
f 215 216 209
f 65 67 207
f 67 92 207
f 118 117 10
f 10 117 84
f 217 69 218
f 80 116 81
f 116 97 99
f 172 153 219
f 57 58 220
f 221 222 162
f 223 59 29
f 86 224 80
f 38 225 132
f 226 227 228
f 228 227 229
f 115 60 230
f 60 231 223
f 147 232 233
f 234 235 218
f 75 115 230
f 236 60 115
f 236 231 60
f 222 233 232
f 217 237 238
f 104 239 240
f 231 59 223
f 241 242 213
f 115 114 236
f 114 243 236
f 231 24 59
f 244 73 95
f 243 231 236
f 243 245 231
f 246 221 162
f 247 150 137
f 153 142 219
f 245 248 231
f 248 24 231
f 249 250 251
f 242 252 120
f 253 254 255
f 58 21 37
f 256 245 243
f 245 25 248
f 25 24 248
f 150 247 257
f 56 230 60
f 258 259 260
f 261 213 119
f 162 232 98
f 262 263 264
f 238 221 259
f 262 264 241
f 232 147 98
f 141 243 114
f 141 256 243
f 172 263 265
f 93 217 258
f 38 244 225
f 237 218 235
f 244 233 225
f 241 264 242
f 218 237 217
f 212 266 148
f 245 256 267
f 234 218 69
f 268 269 169
f 193 238 237
f 158 256 141
f 270 45 271
f 242 264 219
f 162 97 224
f 225 233 221
f 132 225 193
f 272 273 49
f 256 158 267
f 95 94 125
f 274 73 244
f 259 221 246
f 220 58 192
f 260 162 224
f 275 123 276
f 264 263 172
f 193 237 235
f 69 217 93
f 97 116 80
f 97 80 224
f 222 232 162
f 240 142 27
f 277 278 85
f 258 260 76
f 76 260 86
f 252 219 279
f 233 222 221
f 252 279 239
f 260 224 86
f 280 281 282
f 274 244 38
f 264 172 219
f 279 219 142
f 58 133 192
f 238 225 221
f 283 284 104
f 233 285 212
f 142 240 279
f 259 258 217
f 223 29 60
f 259 246 260
f 246 162 260
f 239 279 240
f 283 104 240
f 233 244 285
f 286 157 206
f 287 41 288
f 254 68 278
f 278 68 85
f 147 233 212
f 252 242 219
f 225 238 193
f 217 238 259
f 93 258 76
f 215 209 208
f 76 86 77
f 48 289 290
f 291 211 125
f 292 293 127
f 294 295 296
f 262 241 297
f 298 31 299
f 299 300 298
f 276 189 301
f 302 303 143
f 304 305 306
f 301 307 6
f 308 300 273
f 300 308 298
f 309 70 310
f 311 312 313
f 119 314 261
f 315 197 199
f 72 305 79
f 309 140 70
f 33 32 316
f 317 9 8
f 318 306 319
f 170 320 168
f 321 194 48
f 253 235 234
f 135 322 323
f 273 272 308
f 9 309 324
f 321 325 194
f 57 209 202
f 33 316 70
f 250 326 79
f 327 328 329
f 169 318 319
f 330 331 332
f 319 306 333
f 334 320 332
f 125 335 126
f 336 337 338
f 251 250 305
f 250 79 305
f 339 340 329
f 178 190 276
f 326 94 79
f 309 9 140
f 72 74 333
f 170 169 269
f 34 36 341
f 276 301 275
f 332 320 170
f 197 342 198
f 343 282 344
f 213 261 345
f 346 25 245
f 120 252 239
f 306 305 72
f 306 72 333
f 168 318 169
f 346 245 283
f 346 27 25
f 216 202 209
f 346 240 27
f 290 321 48
f 202 21 57
f 211 285 244
f 95 211 244
f 210 209 57
f 283 240 346
f 125 127 291
f 220 210 57
f 228 347 226
f 202 22 21
f 287 189 39
f 190 189 276
f 109 288 196
f 20 37 21
f 139 138 348
f 274 20 22
f 349 283 267
f 274 38 20
f 273 88 87
f 112 83 201
f 307 50 350
f 22 73 274
f 189 109 301
f 351 349 14
f 352 53 52
f 17 7 324
f 351 2 353
f 354 71 140
f 300 88 273
f 273 87 49
f 354 31 71
f 96 267 158
f 108 101 55
f 301 50 307
f 351 14 2
f 26 87 23
f 355 263 262
f 349 96 14
f 349 267 96
f 229 356 228
f 49 87 26
f 297 357 355
f 210 358 208
f 211 266 285
f 284 349 351
f 183 139 200
f 31 298 308
f 266 212 285
f 284 283 349
f 211 291 266
f 189 287 109
f 291 214 266
f 87 89 23
f 109 50 301
f 23 59 24
f 267 283 245
f 25 26 23
f 214 148 266
f 359 194 325
f 291 61 214
f 195 194 359
f 23 89 51
f 214 149 148
f 100 128 83
f 127 61 291
f 13 108 55
f 128 201 83
f 32 308 272
f 19 149 214
f 355 262 297
f 287 288 109
f 4 6 360
f 48 194 46
f 39 41 287
f 325 16 18
f 182 187 12
f 361 183 200
f 362 363 364
f 188 182 171
f 361 200 365
f 366 357 297
f 355 265 263
f 12 176 173
f 184 188 171
f 11 205 176
f 302 143 265
f 367 184 368
f 369 196 370
f 213 242 120
f 361 137 183
f 176 205 174
f 185 367 150
f 295 315 296
f 163 159 138
f 371 56 28
f 64 290 91
f 372 360 105
f 201 186 205
f 173 182 12
f 277 85 373
f 352 52 374
f 371 28 375
f 372 376 360
f 367 368 150
f 377 28 30
f 373 85 185
f 207 12 187
f 185 150 257
f 295 378 315
f 375 28 377
f 185 184 367
f 348 379 36
f 327 380 381
f 136 135 323
f 11 176 12
f 365 180 382
f 205 179 174
f 321 383 7
f 368 184 171
f 138 159 348
f 110 369 49
f 384 327 381
f 226 347 342
f 383 8 7
f 365 200 180
f 88 300 385
f 139 348 36
f 386 122 178
f 34 341 339
f 290 383 321
f 205 112 201
f 387 388 389
f 91 290 289
f 383 64 63
f 381 390 384
f 327 181 328
f 205 186 179
f 163 150 368
f 26 143 303
f 327 384 181
f 314 366 261
f 191 193 235
f 163 368 171
f 89 88 51
f 391 392 378
f 393 375 377
f 385 42 88
f 196 369 110
f 188 187 182
f 181 34 328
f 290 64 383
f 30 385 377
f 42 51 88
f 328 34 339
f 383 63 8
f 30 42 385
f 39 178 177
f 310 316 376
f 1 61 293
f 177 122 394
f 395 396 145
f 394 397 40
f 177 394 40
f 398 394 122
f 121 398 122
f 394 399 397
f 397 399 288
f 41 397 288
f 399 400 288
f 354 393 299
f 180 181 382
f 1 293 313
f 398 399 394
f 398 401 399
f 402 398 121
f 362 403 363
f 400 370 288
f 404 405 362
f 362 405 403
f 403 406 363
f 403 347 406
f 401 400 399
f 139 36 35
f 344 405 404
f 347 228 406
f 401 398 402
f 370 196 288
f 401 370 400
f 405 198 403
f 213 345 241
f 407 408 282
f 344 409 405
f 198 347 403
f 321 7 16
f 405 409 198
f 410 354 140
f 411 401 402
f 344 294 409
f 70 316 310
f 391 408 407
f 391 407 412
f 31 308 32
f 136 413 414
f 377 385 299
f 295 408 391
f 295 294 408
f 299 385 300
f 415 355 357
f 294 199 409
f 410 393 354
f 294 296 199
f 265 355 415
f 146 335 144
f 416 417 418
f 359 419 420
f 401 369 370
f 265 415 302
f 321 16 325
f 420 374 44
f 327 421 380
f 33 71 31
f 328 339 329
f 422 423 311
f 395 145 424
f 420 195 359
f 359 425 419
f 425 426 419
f 4 411 206
f 401 411 369
f 324 7 9
f 395 427 396
f 428 229 429
f 136 323 413
f 311 423 312
f 69 254 234
f 430 335 146
f 429 229 227
f 200 35 180
f 377 299 393
f 4 431 411
f 411 431 369
f 1 313 432
f 336 195 43
f 359 18 425
f 4 376 431
f 342 347 198
f 146 145 396
f 421 392 433
f 392 340 434
f 415 435 302
f 228 436 406
f 144 437 145
f 272 431 376
f 272 369 431
f 303 302 435
f 329 340 392
f 18 17 425
f 49 369 272
f 41 40 397
f 32 272 376
f 438 303 435
f 32 376 316
f 5 301 6
f 324 426 425
f 309 439 426
f 309 310 439
f 199 198 409
f 327 329 421
f 296 315 199
f 425 17 324
f 324 309 426
f 31 354 299
f 359 325 18
f 190 178 39
f 311 293 440
f 441 391 412
f 293 442 440
f 388 387 330
f 430 427 292
f 378 392 434
f 443 74 444
f 22 203 73
f 437 144 445
f 329 392 421
f 282 446 280
f 294 344 408
f 170 388 332
f 444 203 216
f 127 293 61
f 203 202 216
f 1 432 2
f 307 350 6
f 427 430 146
f 436 424 406
f 303 350 50
f 5 275 301
f 303 438 350
f 335 94 326
f 73 203 444
f 442 292 427
f 447 448 424
f 395 422 311
f 422 395 436
f 436 228 423
f 408 344 282
f 303 50 26
f 312 356 428
f 304 251 305
f 2 432 353
f 449 54 450
f 451 449 450
f 127 430 292
f 125 94 335
f 447 145 437
f 104 284 105
f 229 428 356
f 284 451 105
f 423 356 312
f 353 432 429
f 424 448 406
f 451 452 449
f 453 54 449
f 127 126 430
f 432 312 428
f 118 10 207
f 436 395 424
f 454 453 449
f 284 452 451
f 452 454 449
f 432 313 312
f 430 126 335
f 429 432 428
f 444 74 73
f 351 452 284
f 292 442 293
f 448 363 406
f 454 227 453
f 391 433 392
f 313 293 311
f 429 454 452
f 447 424 145
f 353 452 351
f 452 353 429
f 429 227 454
f 144 335 445
f 123 386 276
f 419 426 439
f 372 451 450
f 44 455 271
f 352 419 53
f 215 443 216
f 103 456 119
f 286 411 402
f 360 6 105
f 215 457 443
f 434 337 270
f 443 333 74
f 135 257 322
f 457 333 443
f 458 372 53
f 268 457 215
f 446 282 343
f 271 455 226
f 342 271 226
f 458 376 372
f 169 457 268
f 270 271 342
f 350 103 6
f 350 438 456
f 326 250 335
f 105 6 103
f 43 195 420
f 459 270 197
f 319 457 169
f 250 445 335
f 434 270 459
f 445 250 249
f 434 459 378
f 12 207 10
f 455 227 226
f 304 306 318
f 227 455 453
f 435 415 314
f 372 105 451
f 460 393 410
f 336 43 337
f 455 374 453
f 251 461 249
f 378 459 315
f 462 445 249
f 439 458 53
f 168 304 318
f 208 268 215
f 168 463 304
f 464 462 249
f 461 465 249
f 465 464 249
f 320 463 168
f 445 462 437
f 443 444 216
f 270 342 197
f 320 334 463
f 450 54 53
f 241 345 297
f 331 334 332
f 391 378 295
f 436 423 422
f 439 310 458
f 463 466 304
f 466 461 304
f 464 467 462
f 467 437 462
f 459 197 315
f 466 468 461
f 461 468 465
f 437 467 447
f 465 469 464
f 440 442 427
f 427 311 440
f 456 438 435
f 470 467 464
f 463 471 466
f 376 4 360
f 311 427 395
f 455 44 374
f 471 468 466
f 468 472 465
f 396 427 146
f 472 469 465
f 463 473 471
f 470 474 467
f 331 330 334
f 334 473 463
f 471 475 468
f 474 447 467
f 469 470 464
f 350 456 103
f 468 475 472
f 433 380 421
f 170 476 477
f 474 448 447
f 380 433 478
f 475 479 472
f 471 479 475
f 470 364 474
f 474 364 448
f 343 479 471
f 472 480 469
f 469 480 470
f 282 281 407
f 45 270 337
f 330 473 334
f 343 471 473
f 453 52 54
f 456 314 119
f 345 366 297
f 479 480 472
f 441 478 433
f 156 135 134
f 45 44 271
f 261 366 345
f 480 364 470
f 374 52 453
f 43 45 337
f 415 357 366
f 330 343 473
f 404 479 343
f 404 480 479
f 390 382 384
f 364 363 448
f 310 376 458
f 404 364 480
f 419 439 53
f 435 314 456
f 374 420 352
f 228 356 423
f 330 446 343
f 433 391 441
f 181 384 382
f 344 404 343
f 419 352 420
f 314 415 366
f 362 364 404
f 40 39 177
f 372 450 53
f 206 411 286
f 5 123 275
f 43 420 44
f 333 457 319
f 461 251 304
f 210 191 358
f 268 358 269
f 402 121 286
f 481 482 417
f 483 484 485
f 484 486 487
f 358 476 269
f 278 373 488
f 157 286 123
f 407 281 412
f 488 257 135
f 476 483 489
f 254 278 488
f 386 178 276
f 253 234 254
f 9 317 140
f 317 410 140
f 358 483 476
f 253 486 484
f 477 417 416
f 476 481 477
f 410 317 460
f 486 255 490
f 375 393 460
f 210 220 191
f 336 46 195
f 317 491 460
f 481 417 477
f 487 492 482
f 172 265 143
f 486 490 493
f 418 494 416
f 332 388 330
f 123 122 386
f 23 51 59
f 278 277 373
f 47 289 48
f 491 317 8
f 491 371 460
f 413 323 495
f 493 155 134
f 63 491 8
f 460 371 375
f 235 253 484
f 388 496 389
f 493 134 494
f 336 338 46
f 46 338 47
f 477 388 170
f 63 75 491
f 417 492 418
f 75 371 491
f 230 56 371
f 338 497 47
f 239 104 120
f 418 492 493
f 337 434 338
f 230 371 75
f 478 381 380
f 358 484 483
f 496 477 416
f 191 235 484
f 269 476 170
f 373 185 257
f 373 257 488
f 434 340 338
f 486 492 487
f 390 381 478
f 497 289 47
f 490 155 493
f 340 379 338
f 254 69 68
f 477 496 388
f 418 493 494
f 365 382 390
f 379 497 338
f 412 478 441
f 255 254 488
f 340 339 379
f 289 106 91
f 208 358 268
f 498 478 412
f 497 124 289
f 124 106 289
f 348 497 379
f 498 390 478
f 348 124 497
f 496 494 389
f 499 498 412
f 121 123 286
f 414 499 412
f 387 412 281
f 500 390 498
f 486 253 255
f 387 281 280
f 414 412 387
f 501 498 499
f 500 365 390
f 502 414 387
f 124 131 111
f 500 361 365
f 389 502 387
f 500 247 361
f 348 159 124
f 159 131 124
f 137 361 247
f 446 387 280
f 499 413 501
f 494 502 389
f 413 499 414
f 322 247 500
f 358 191 484
f 486 493 492
f 257 247 322
f 220 192 191
f 482 492 417
f 416 494 496
f 330 387 446
f 481 476 489
f 485 484 487
f 489 483 485
f 489 485 487
f 489 487 482
f 489 482 481
f 36 379 339
f 341 36 339
f 494 134 136
f 494 136 414
f 494 414 502
f 488 135 156
f 155 490 255
f 155 255 488
f 488 156 155
f 501 413 495
f 495 323 322
f 500 498 501
f 501 495 322
f 501 322 500
