# Deterministic Milestone G fixture: close_sheets
v 0 0 -0.035000000000000003
v 0.33333333333333331 0 -0.035000000000000003
v 0.33333333333333331 0.33333333333333331 -0.035000000000000003
v 0 0.33333333333333331 -0.035000000000000003
v 0.66666666666666663 0 -0.035000000000000003
v 0.66666666666666663 0.33333333333333331 -0.035000000000000003
v 1 0 -0.035000000000000003
v 1 0.33333333333333331 -0.035000000000000003
v 0.33333333333333331 0.66666666666666663 -0.035000000000000003
v 0 0.66666666666666663 -0.035000000000000003
v 0.66666666666666663 0.66666666666666663 -0.035000000000000003
v 1 0.66666666666666663 -0.035000000000000003
v 0.33333333333333331 1 -0.035000000000000003
v 0 1 -0.035000000000000003
v 0.66666666666666663 1 -0.035000000000000003
v 1 1 -0.035000000000000003
v 0 0 0.035000000000000003
v 0 0.33333333333333331 0.035000000000000003
v 0.33333333333333331 0.33333333333333331 0.035000000000000003
v 0.33333333333333331 0 0.035000000000000003
v 0.66666666666666663 0.33333333333333331 0.035000000000000003
v 0.66666666666666663 0 0.035000000000000003
v 1 0.33333333333333331 0.035000000000000003
v 1 0 0.035000000000000003
v 0 0.66666666666666663 0.035000000000000003
v 0.33333333333333331 0.66666666666666663 0.035000000000000003
v 0.66666666666666663 0.66666666666666663 0.035000000000000003
v 1 0.66666666666666663 0.035000000000000003
v 0 1 0.035000000000000003
v 0.33333333333333331 1 0.035000000000000003
v 0.66666666666666663 1 0.035000000000000003
v 1 1 0.035000000000000003
f 1 2 3
f 1 3 4
f 2 5 6
f 2 6 3
f 5 7 8
f 5 8 6
f 4 3 9
f 4 9 10
f 3 6 11
f 3 11 9
f 6 8 12
f 6 12 11
f 10 9 13
f 10 13 14
f 9 11 15
f 9 15 13
f 11 12 16
f 11 16 15
f 17 18 19
f 17 19 20
f 20 19 21
f 20 21 22
f 22 21 23
f 22 23 24
f 18 25 26
f 18 26 19
f 19 26 27
f 19 27 21
f 21 27 28
f 21 28 23
f 25 29 30
f 25 30 26
f 26 30 31
f 26 31 27
f 27 31 32
f 27 32 28
