# Deterministic Milestone G fixture: cylinder
v 1 0 -1
v 0.92387953251128674 0.38268343236508978 -1
v 0.92387953251128674 0.38268343236508978 -0.5
v 1 0 -0.5
v 0.70710678118654757 0.70710678118654746 -1
v 0.70710678118654757 0.70710678118654746 -0.5
v 0.38268343236508984 0.92387953251128674 -1
v 0.38268343236508984 0.92387953251128674 -0.5
v 6.123233995736766e-17 1 -1
v 6.123233995736766e-17 1 -0.5
v -0.38268343236508973 0.92387953251128674 -1
v -0.38268343236508973 0.92387953251128674 -0.5
v -0.70710678118654746 0.70710678118654757 -1
v -0.70710678118654746 0.70710678118654757 -0.5
v -0.92387953251128674 0.38268343236508989 -1
v -0.92387953251128674 0.38268343236508989 -0.5
v -1 1.2246467991473532e-16 -1
v -1 1.2246467991473532e-16 -0.5
v -0.92387953251128685 -0.38268343236508967 -1
v -0.92387953251128685 -0.38268343236508967 -0.5
v -0.70710678118654768 -0.70710678118654746 -1
v -0.70710678118654768 -0.70710678118654746 -0.5
v -0.38268343236509034 -0.92387953251128652 -1
v -0.38268343236509034 -0.92387953251128652 -0.5
v -1.8369701987210297e-16 -1 -1
v -1.8369701987210297e-16 -1 -0.5
v 0.38268343236509 -0.92387953251128663 -1
v 0.38268343236509 -0.92387953251128663 -0.5
v 0.70710678118654735 -0.70710678118654768 -1
v 0.70710678118654735 -0.70710678118654768 -0.5
v 0.92387953251128652 -0.38268343236509039 -1
v 0.92387953251128652 -0.38268343236509039 -0.5
v 0.92387953251128674 0.38268343236508978 0
v 1 0 0
v 0.70710678118654757 0.70710678118654746 0
v 0.38268343236508984 0.92387953251128674 0
v 6.123233995736766e-17 1 0
v -0.38268343236508973 0.92387953251128674 0
v -0.70710678118654746 0.70710678118654757 0
v -0.92387953251128674 0.38268343236508989 0
v -1 1.2246467991473532e-16 0
v -0.92387953251128685 -0.38268343236508967 0
v -0.70710678118654768 -0.70710678118654746 0
v -0.38268343236509034 -0.92387953251128652 0
v -1.8369701987210297e-16 -1 0
v 0.38268343236509 -0.92387953251128663 0
v 0.70710678118654735 -0.70710678118654768 0
v 0.92387953251128652 -0.38268343236509039 0
v 0.92387953251128674 0.38268343236508978 0.5
v 1 0 0.5
v 0.70710678118654757 0.70710678118654746 0.5
v 0.38268343236508984 0.92387953251128674 0.5
v 6.123233995736766e-17 1 0.5
v -0.38268343236508973 0.92387953251128674 0.5
v -0.70710678118654746 0.70710678118654757 0.5
v -0.92387953251128674 0.38268343236508989 0.5
v -1 1.2246467991473532e-16 0.5
v -0.92387953251128685 -0.38268343236508967 0.5
v -0.70710678118654768 -0.70710678118654746 0.5
v -0.38268343236509034 -0.92387953251128652 0.5
v -1.8369701987210297e-16 -1 0.5
v 0.38268343236509 -0.92387953251128663 0.5
v 0.70710678118654735 -0.70710678118654768 0.5
v 0.92387953251128652 -0.38268343236509039 0.5
v 0.92387953251128674 0.38268343236508978 1
v 1 0 1
v 0.70710678118654757 0.70710678118654746 1
v 0.38268343236508984 0.92387953251128674 1
v 6.123233995736766e-17 1 1
v -0.38268343236508973 0.92387953251128674 1
v -0.70710678118654746 0.70710678118654757 1
v -0.92387953251128674 0.38268343236508989 1
v -1 1.2246467991473532e-16 1
v -0.92387953251128685 -0.38268343236508967 1
v -0.70710678118654768 -0.70710678118654746 1
v -0.38268343236509034 -0.92387953251128652 1
v -1.8369701987210297e-16 -1 1
v 0.38268343236509 -0.92387953251128663 1
v 0.70710678118654735 -0.70710678118654768 1
v 0.92387953251128652 -0.38268343236509039 1
f 1 2 3
f 1 3 4
f 2 5 6
f 2 6 3
f 5 7 8
f 5 8 6
f 7 9 10
f 7 10 8
f 9 11 12
f 9 12 10
f 11 13 14
f 11 14 12
f 13 15 16
f 13 16 14
f 15 17 18
f 15 18 16
f 17 19 20
f 17 20 18
f 19 21 22
f 19 22 20
f 21 23 24
f 21 24 22
f 23 25 26
f 23 26 24
f 25 27 28
f 25 28 26
f 27 29 30
f 27 30 28
f 29 31 32
f 29 32 30
f 31 1 4
f 31 4 32
f 4 3 33
f 4 33 34
f 3 6 35
f 3 35 33
f 6 8 36
f 6 36 35
f 8 10 37
f 8 37 36
f 10 12 38
f 10 38 37
f 12 14 39
f 12 39 38
f 14 16 40
f 14 40 39
f 16 18 41
f 16 41 40
f 18 20 42
f 18 42 41
f 20 22 43
f 20 43 42
f 22 24 44
f 22 44 43
f 24 26 45
f 24 45 44
f 26 28 46
f 26 46 45
f 28 30 47
f 28 47 46
f 30 32 48
f 30 48 47
f 32 4 34
f 32 34 48
f 34 33 49
f 34 49 50
f 33 35 51
f 33 51 49
f 35 36 52
f 35 52 51
f 36 37 53
f 36 53 52
f 37 38 54
f 37 54 53
f 38 39 55
f 38 55 54
f 39 40 56
f 39 56 55
f 40 41 57
f 40 57 56
f 41 42 58
f 41 58 57
f 42 43 59
f 42 59 58
f 43 44 60
f 43 60 59
f 44 45 61
f 44 61 60
f 45 46 62
f 45 62 61
f 46 47 63
f 46 63 62
f 47 48 64
f 47 64 63
f 48 34 50
f 48 50 64
f 50 49 65
f 50 65 66
f 49 51 67
f 49 67 65
f 51 52 68
f 51 68 67
f 52 53 69
f 52 69 68
f 53 54 70
f 53 70 69
f 54 55 71
f 54 71 70
f 55 56 72
f 55 72 71
f 56 57 73
f 56 73 72
f 57 58 74
f 57 74 73
f 58 59 75
f 58 75 74
f 59 60 76
f 59 76 75
f 60 61 77
f 60 77 76
f 61 62 78
f 61 78 77
f 62 63 79
f 62 79 78
f 63 64 80
f 63 80 79
f 64 50 66
f 64 66 80
