# Deterministic Milestone G fixture: genus_two
v -2.5 -1.5 -1
v -2.5 -1.5 0
v -2.5 -0.5 0
v -2.5 -0.5 -1
v -1.5 -1.5 -1
v -1.5 -1.5 0
v -1.5 -0.5 -1
v -2.5 -1.5 1
v -2.5 -0.5 1
v -1.5 -1.5 1
v -1.5 -0.5 1
v -1.5 0.5 -1
v -1.5 0.5 0
v -1.5 -0.5 0
v -2.5 0.5 0
v -2.5 0.5 -1
v -1.5 0.5 1
v -2.5 0.5 1
v -2.5 1.5 0
v -2.5 1.5 -1
v -1.5 1.5 0
v -1.5 1.5 -1
v -2.5 1.5 1
v -1.5 1.5 1
v -0.5 -0.5 0
v -0.5 -0.5 -1
v -0.5 -1.5 -1
v -0.5 -1.5 0
v -0.5 -0.5 1
v -0.5 -1.5 1
v -0.5 1.5 0
v -0.5 1.5 -1
v -0.5 0.5 -1
v -0.5 0.5 0
v -0.5 1.5 1
v -0.5 0.5 1
v 0.5 -1.5 -1
v 0.5 -1.5 0
v 0.5 -0.5 -1
v 0.5 -1.5 1
v 0.5 -0.5 1
v 0.5 0.5 -1
v 0.5 0.5 0
v 0.5 -0.5 0
v 0.5 0.5 1
v 0.5 1.5 0
v 0.5 1.5 -1
v 0.5 1.5 1
v 1.5 -0.5 0
v 1.5 -0.5 -1
v 1.5 -1.5 -1
v 1.5 -1.5 0
v 1.5 -0.5 1
v 1.5 -1.5 1
v 1.5 1.5 0
v 1.5 1.5 -1
v 1.5 0.5 -1
v 1.5 0.5 0
v 1.5 1.5 1
v 1.5 0.5 1
v 2.5 -1.5 -1
v 2.5 -0.5 -1
v 2.5 -0.5 0
v 2.5 -1.5 0
v 2.5 -0.5 1
v 2.5 -1.5 1
v 2.5 0.5 -1
v 2.5 0.5 0
v 2.5 0.5 1
v 2.5 1.5 -1
v 2.5 1.5 0
v 2.5 1.5 1
v -2.5 -1.1666666666666667 -0.33333333333333331
v -2.5 -0.83333333333333337 -0.66666666666666663
v -1.8333333333333333 -1.5 -0.66666666666666663
v -2.1666666666666665 -1.5 -0.33333333333333331
v -2.1666666666666665 -0.83333333333333337 -1
v -1.8333333333333333 -1.1666666666666667 -1
v -2.5 -1.1666666666666667 0.66666666666666663
v -2.5 -0.83333333333333337 0.33333333333333331
v -1.8333333333333333 -1.5 0.33333333333333331
v -2.1666666666666665 -1.5 0.66666666666666663
v -1.8333333333333333 -1.1666666666666667 1
v -2.1666666666666665 -0.83333333333333337 1
v -1.5 0.16666666666666666 -0.66666666666666663
v -1.5 -0.16666666666666666 -0.33333333333333331
v -2.5 -0.16666666666666666 -0.33333333333333331
v -2.5 0.16666666666666666 -0.66666666666666663
v -2.1666666666666665 0.16666666666666666 -1
v -1.8333333333333333 -0.16666666666666666 -1
v -1.5 0.16666666666666666 0.33333333333333331
v -1.5 -0.16666666666666666 0.66666666666666663
v -2.5 -0.16666666666666666 0.66666666666666663
v -2.5 0.16666666666666666 0.33333333333333331
v -1.8333333333333333 -0.16666666666666666 1
v -2.1666666666666665 0.16666666666666666 1
v -2.5 0.83333333333333337 -0.33333333333333331
v -2.5 1.1666666666666667 -0.66666666666666663
v -2.1666666666666665 1.5 -0.33333333333333331
v -1.8333333333333333 1.5 -0.66666666666666663
v -2.1666666666666665 1.1666666666666667 -1
v -1.8333333333333333 0.83333333333333337 -1
v -2.5 0.83333333333333337 0.66666666666666663
v -2.5 1.1666666666666667 0.33333333333333331
v -2.1666666666666665 1.5 0.66666666666666663
v -1.8333333333333333 1.5 0.33333333333333331
v -1.8333333333333333 0.83333333333333337 1
v -2.1666666666666665 1.1666666666666667 1
v -1.1666666666666667 -0.5 -0.33333333333333331
v -0.83333333333333337 -0.5 -0.66666666666666663
v -0.83333333333333337 -1.5 -0.66666666666666663
v -1.1666666666666667 -1.5 -0.33333333333333331
v -1.1666666666666667 -0.83333333333333337 -1
v -0.83333333333333337 -1.1666666666666667 -1
v -1.1666666666666667 -0.5 0.66666666666666663
v -0.83333333333333337 -0.5 0.33333333333333331
v -0.83333333333333337 -1.5 0.33333333333333331
v -1.1666666666666667 -1.5 0.66666666666666663
v -0.83333333333333337 -1.1666666666666667 1
v -1.1666666666666667 -0.83333333333333337 1
f 1 2 73
f 2 3 73
f 3 1 73
f 1 3 74
f 3 4 74
f 4 1 74
f 1 5 75
f 5 6 75
f 6 1 75
f 1 6 76
f 6 2 76
f 2 1 76
f 1 4 77
f 4 7 77
f 7 1 77
f 1 7 78
f 7 5 78
f 5 1 78
f 2 8 79
f 8 9 79
f 9 2 79
f 2 9 80
f 9 3 80
f 3 2 80
f 2 6 81
f 6 10 81
f 10 2 81
f 2 10 82
f 10 8 82
f 8 2 82
f 8 10 83
f 10 11 83
f 11 8 83
f 8 11 84
f 11 9 84
f 9 8 84
f 7 12 85
f 12 13 85
f 13 7 85
f 7 13 86
f 13 14 86
f 14 7 86
f 4 3 87
f 3 15 87
f 15 4 87
f 4 15 88
f 15 16 88
f 16 4 88
f 4 16 89
f 16 12 89
f 12 4 89
f 4 12 90
f 12 7 90
f 7 4 90
f 14 13 91
f 13 17 91
f 17 14 91
f 14 17 92
f 17 11 92
f 11 14 92
f 3 9 93
f 9 18 93
f 18 3 93
f 3 18 94
f 18 15 94
f 15 3 94
f 9 11 95
f 11 17 95
f 17 9 95
f 9 17 96
f 17 18 96
f 18 9 96
f 16 15 97
f 15 19 97
f 19 16 97
f 16 19 98
f 19 20 98
f 20 16 98
f 20 19 99
f 19 21 99
f 21 20 99
f 20 21 100
f 21 22 100
f 22 20 100
f 16 20 101
f 20 22 101
f 22 16 101
f 16 22 102
f 22 12 102
f 12 16 102
f 15 18 103
f 18 23 103
f 23 15 103
f 15 23 104
f 23 19 104
f 19 15 104
f 19 23 105
f 23 24 105
f 24 19 105
f 19 24 106
f 24 21 106
f 21 19 106
f 18 17 107
f 17 24 107
f 24 18 107
f 18 24 108
f 24 23 108
f 23 18 108
f 7 14 109
f 14 25 109
f 25 7 109
f 7 25 110
f 25 26 110
f 26 7 110
f 5 27 111
f 27 28 111
f 28 5 111
f 5 28 112
f 28 6 112
f 6 5 112
f 5 7 113
f 7 26 113
f 26 5 113
f 5 26 114
f 26 27 114
f 27 5 114
f 14 11 115
f 11 29 115
f 29 14 115
f 14 29 116
f 29 25 116
f 25 14 116
f 6 28 117
f 28 30 117
f 30 6 117
f 6 30 118
f 30 10 118
f 10 6 118
f 10 30 119
f 30 29 119
f 29 10 119
f 10 29 120
f 29 11 120
f 11 10 120
f 22 21 31
f 22 31 32
f 12 33 34
f 12 34 13
f 12 22 32
f 12 32 33
f 21 24 35
f 21 35 31
f 13 34 36
f 13 36 17
f 17 36 35
f 17 35 24
f 27 37 38
f 27 38 28
f 27 26 39
f 27 39 37
f 28 38 40
f 28 40 30
f 30 40 41
f 30 41 29
f 39 42 43
f 39 43 44
f 26 25 34
f 26 34 33
f 26 33 42
f 26 42 39
f 44 43 45
f 44 45 41
f 25 29 36
f 25 36 34
f 29 41 45
f 29 45 36
f 32 31 46
f 32 46 47
f 33 32 47
f 33 47 42
f 31 35 48
f 31 48 46
f 36 45 48
f 36 48 35
f 39 44 49
f 39 49 50
f 37 51 52
f 37 52 38
f 37 39 50
f 37 50 51
f 44 41 53
f 44 53 49
f 38 52 54
f 38 54 40
f 40 54 53
f 40 53 41
f 47 46 55
f 47 55 56
f 42 57 58
f 42 58 43
f 42 47 56
f 42 56 57
f 46 48 59
f 46 59 55
f 43 58 60
f 43 60 45
f 45 60 59
f 45 59 48
f 61 62 63
f 61 63 64
f 51 61 64
f 51 64 52
f 51 50 62
f 51 62 61
f 64 63 65
f 64 65 66
f 52 64 66
f 52 66 54
f 54 66 65
f 54 65 53
f 62 67 68
f 62 68 63
f 50 49 58
f 50 58 57
f 50 57 67
f 50 67 62
f 63 68 69
f 63 69 65
f 49 53 60
f 49 60 58
f 53 65 69
f 53 69 60
f 67 70 71
f 67 71 68
f 56 55 71
f 56 71 70
f 57 56 70
f 57 70 67
f 68 71 72
f 68 72 69
f 55 59 72
f 55 72 71
f 60 69 72
f 60 72 59
