# Deterministic Milestone G fixture: mechanical_feature
v 1.3999999999999999 -0.78000000000000003 -0.90000000000000002
v 1.3999999999999999 -0.432 -0.90000000000000002
v 1.3999999999999999 -0.432 -0.54000000000000004
v 1.3999999999999999 -0.73854101966249686 -0.54000000000000004
v 1.3999999999999999 -0.14399999999999996 -0.90000000000000002
v 1.3999999999999999 -0.14399999999999996 -0.54000000000000004
v 1.3999999999999999 0.14399999999999996 -0.90000000000000002
v 1.3999999999999999 0.14399999999999996 -0.54000000000000004
v 1.3999999999999999 0.43200000000000005 -0.90000000000000002
v 1.3999999999999999 0.43200000000000005 -0.54000000000000004
v 1.3999999999999999 0.71999999999999997 -0.90000000000000002
v 1.3999999999999999 0.71999999999999997 -0.54000000000000004
v 1.3999999999999999 -0.432 -0.17999999999999997
v 1.3999999999999999 -0.67145898033750318 -0.17999999999999997
v 1.3999999999999999 -0.14399999999999996 -0.17999999999999997
v 1.3999999999999999 0.14399999999999996 -0.17999999999999997
v 1.3999999999999999 0.43200000000000005 -0.17999999999999997
v 1.3999999999999999 0.71999999999999997 -0.17999999999999997
v 1.3999999999999999 -0.432 0.17999999999999997
v 1.3999999999999999 -0.67145898033750318 0.17999999999999997
v 1.3999999999999999 -0.14399999999999996 0.17999999999999997
v 1.3999999999999999 0.14399999999999996 0.17999999999999997
v 1.3999999999999999 0.43200000000000005 0.17999999999999997
v 1.3999999999999999 0.71999999999999997 0.17999999999999997
v 1.3999999999999999 -0.432 0.54000000000000015
v 1.3999999999999999 -0.73854101966249686 0.54000000000000015
v 1.3999999999999999 -0.14399999999999996 0.54000000000000015
v 1.3999999999999999 0.14399999999999996 0.54000000000000015
v 1.3999999999999999 0.43200000000000005 0.54000000000000015
v 1.3999999999999999 0.71999999999999997 0.54000000000000015
v 1.3999999999999999 -0.432 0.90000000000000002
v 1.3999999999999999 -0.78000000000000003 0.90000000000000002
v 1.3999999999999999 -0.14399999999999996 0.90000000000000002
v 1.3999999999999999 0.14399999999999996 0.90000000000000002
v 1.3999999999999999 0.43200000000000005 0.90000000000000002
v 1.3999999999999999 0.71999999999999997 0.90000000000000002
v -1.3999999999999999 -0.78000000000000003 -0.90000000000000002
v -1.3999999999999999 -0.73854101966249686 -0.54000000000000004
v -1.3999999999999999 -0.432 -0.54000000000000004
v -1.3999999999999999 -0.432 -0.90000000000000002
v -1.3999999999999999 -0.14399999999999996 -0.54000000000000004
v -1.3999999999999999 -0.14399999999999996 -0.90000000000000002
v -1.3999999999999999 0.14399999999999996 -0.54000000000000004
v -1.3999999999999999 0.14399999999999996 -0.90000000000000002
v -1.3999999999999999 0.43200000000000005 -0.54000000000000004
v -1.3999999999999999 0.43200000000000005 -0.90000000000000002
v -1.3999999999999999 0.71999999999999997 -0.54000000000000004
v -1.3999999999999999 0.71999999999999997 -0.90000000000000002
v -1.3999999999999999 -0.67145898033750318 -0.17999999999999997
v -1.3999999999999999 -0.432 -0.17999999999999997
v -1.3999999999999999 -0.14399999999999996 -0.17999999999999997
v -1.3999999999999999 0.14399999999999996 -0.17999999999999997
v -1.3999999999999999 0.43200000000000005 -0.17999999999999997
v -1.3999999999999999 0.71999999999999997 -0.17999999999999997
v -1.3999999999999999 -0.67145898033750318 0.17999999999999997
v -1.3999999999999999 -0.432 0.17999999999999997
v -1.3999999999999999 -0.14399999999999996 0.17999999999999997
v -1.3999999999999999 0.14399999999999996 0.17999999999999997
v -1.3999999999999999 0.43200000000000005 0.17999999999999997
v -1.3999999999999999 0.71999999999999997 0.17999999999999997
v -1.3999999999999999 -0.73854101966249686 0.54000000000000015
v -1.3999999999999999 -0.432 0.54000000000000015
v -1.3999999999999999 -0.14399999999999996 0.54000000000000015
v -1.3999999999999999 0.14399999999999996 0.54000000000000015
v -1.3999999999999999 0.43200000000000005 0.54000000000000015
v -1.3999999999999999 0.71999999999999997 0.54000000000000015
v -1.3999999999999999 -0.78000000000000003 0.90000000000000002
v -1.3999999999999999 -0.432 0.90000000000000002
v -1.3999999999999999 -0.14399999999999996 0.90000000000000002
v -1.3999999999999999 0.14399999999999996 0.90000000000000002
v -1.3999999999999999 0.43200000000000005 0.90000000000000002
v -1.3999999999999999 0.71999999999999997 0.90000000000000002
v -0.83999999999999997 0.71999999999999997 -0.54000000000000004
v -0.83999999999999997 0.71999999999999997 -0.90000000000000002
v -0.27999999999999992 0.71999999999999997 -0.54000000000000004
v -0.27999999999999992 0.71999999999999997 -0.90000000000000002
v 0.27999999999999992 0.71999999999999997 -0.54000000000000004
v 0.27999999999999992 0.71999999999999997 -0.90000000000000002
v 0.84000000000000008 0.71999999999999997 -0.54000000000000004
v 0.84000000000000008 0.71999999999999997 -0.90000000000000002
v -0.83999999999999997 0.71999999999999997 -0.17999999999999997
v -0.27999999999999992 0.71999999999999997 -0.17999999999999997
v 0.27999999999999992 0.71999999999999997 -0.17999999999999997
v 0.84000000000000008 0.71999999999999997 -0.17999999999999997
v -0.83999999999999997 0.71999999999999997 0.17999999999999997
v -0.27999999999999992 0.71999999999999997 0.17999999999999997
v 0.27999999999999992 0.71999999999999997 0.17999999999999997
v 0.84000000000000008 0.71999999999999997 0.17999999999999997
v -0.83999999999999997 0.71999999999999997 0.54000000000000015
v -0.27999999999999992 0.71999999999999997 0.54000000000000015
v 0.27999999999999992 0.71999999999999997 0.54000000000000015
v 0.84000000000000008 0.71999999999999997 0.54000000000000015
v -0.83999999999999997 0.71999999999999997 0.90000000000000002
v -0.27999999999999992 0.71999999999999997 0.90000000000000002
v 0.27999999999999992 0.71999999999999997 0.90000000000000002
v 0.84000000000000008 0.71999999999999997 0.90000000000000002
v -0.83999999999999997 -0.73854101966249686 -0.90000000000000002
v -0.83999999999999997 -0.72572949016875155 -0.54000000000000004
v -0.27999999999999992 -0.67145898033750318 -0.90000000000000002
v -0.27999999999999992 -0.70499999999999996 -0.54000000000000004
v 0.27999999999999992 -0.67145898033750318 -0.90000000000000002
v 0.27999999999999992 -0.70499999999999996 -0.54000000000000004
v 0.84000000000000008 -0.73854101966249686 -0.90000000000000002
v 0.84000000000000008 -0.72572949016875155 -0.54000000000000004
v -0.83999999999999997 -0.70499999999999996 -0.17999999999999997
v -0.27999999999999992 -0.75927050983124844 -0.17999999999999997
v 0.27999999999999992 -0.75927050983124844 -0.17999999999999997
v 0.84000000000000008 -0.70499999999999996 -0.17999999999999997
v -0.83999999999999997 -0.70499999999999996 0.17999999999999997
v -0.27999999999999992 -0.75927050983124844 0.17999999999999997
v 0.27999999999999992 -0.75927050983124844 0.17999999999999997
v 0.84000000000000008 -0.70499999999999996 0.17999999999999997
v -0.83999999999999997 -0.72572949016875155 0.54000000000000015
v -0.27999999999999992 -0.70499999999999996 0.54000000000000015
v 0.27999999999999992 -0.70499999999999996 0.54000000000000015
v 0.84000000000000008 -0.72572949016875155 0.54000000000000015
v -0.83999999999999997 -0.73854101966249686 0.90000000000000002
v -0.27999999999999992 -0.67145898033750318 0.90000000000000002
v 0.27999999999999992 -0.67145898033750318 0.90000000000000002
v 0.84000000000000008 -0.73854101966249686 0.90000000000000002
v -0.83999999999999997 -0.432 0.90000000000000002
v -0.27999999999999992 -0.432 0.90000000000000002
v 0.27999999999999992 -0.432 0.90000000000000002
v 0.84000000000000008 -0.432 0.90000000000000002
v -0.83999999999999997 -0.14399999999999996 0.90000000000000002
v -0.27999999999999992 -0.14399999999999996 0.90000000000000002
v 0.27999999999999992 -0.14399999999999996 0.90000000000000002
v 0.84000000000000008 -0.14399999999999996 0.90000000000000002
v -0.83999999999999997 0.14399999999999996 0.90000000000000002
v -0.27999999999999992 0.14399999999999996 0.90000000000000002
v 0.27999999999999992 0.14399999999999996 0.90000000000000002
v 0.84000000000000008 0.14399999999999996 0.90000000000000002
v -0.83999999999999997 0.43200000000000005 0.90000000000000002
v -0.27999999999999992 0.43200000000000005 0.90000000000000002
v 0.27999999999999992 0.43200000000000005 0.90000000000000002
v 0.84000000000000008 0.43200000000000005 0.90000000000000002
v -0.83999999999999997 -0.432 -0.90000000000000002
v -0.27999999999999992 -0.432 -0.90000000000000002
v 0.27999999999999992 -0.432 -0.90000000000000002
v 0.84000000000000008 -0.432 -0.90000000000000002
v -0.83999999999999997 -0.14399999999999996 -0.90000000000000002
v -0.27999999999999992 -0.14399999999999996 -0.90000000000000002
v 0.27999999999999992 -0.14399999999999996 -0.90000000000000002
v 0.84000000000000008 -0.14399999999999996 -0.90000000000000002
v -0.83999999999999997 0.14399999999999996 -0.90000000000000002
v -0.27999999999999992 0.14399999999999996 -0.90000000000000002
v 0.27999999999999992 0.14399999999999996 -0.90000000000000002
v 0.84000000000000008 0.14399999999999996 -0.90000000000000002
v -0.83999999999999997 0.43200000000000005 -0.90000000000000002
v -0.27999999999999992 0.43200000000000005 -0.90000000000000002
v 0.27999999999999992 0.43200000000000005 -0.90000000000000002
v 0.84000000000000008 0.43200000000000005 -0.90000000000000002
f 1 2 3
f 1 3 4
f 2 5 6
f 2 6 3
f 5 7 8
f 5 8 6
f 7 9 10
f 7 10 8
f 9 11 12
f 9 12 10
f 4 3 13
f 4 13 14
f 3 6 15
f 3 15 13
f 6 8 16
f 6 16 15
f 8 10 17
f 8 17 16
f 10 12 18
f 10 18 17
f 14 13 19
f 14 19 20
f 13 15 21
f 13 21 19
f 15 16 22
f 15 22 21
f 16 17 23
f 16 23 22
f 17 18 24
f 17 24 23
f 20 19 25
f 20 25 26
f 19 21 27
f 19 27 25
f 21 22 28
f 21 28 27
f 22 23 29
f 22 29 28
f 23 24 30
f 23 30 29
f 26 25 31
f 26 31 32
f 25 27 33
f 25 33 31
f 27 28 34
f 27 34 33
f 28 29 35
f 28 35 34
f 29 30 36
f 29 36 35
f 37 38 39
f 37 39 40
f 40 39 41
f 40 41 42
f 42 41 43
f 42 43 44
f 44 43 45
f 44 45 46
f 46 45 47
f 46 47 48
f 38 49 50
f 38 50 39
f 39 50 51
f 39 51 41
f 41 51 52
f 41 52 43
f 43 52 53
f 43 53 45
f 45 53 54
f 45 54 47
f 49 55 56
f 49 56 50
f 50 56 57
f 50 57 51
f 51 57 58
f 51 58 52
f 52 58 59
f 52 59 53
f 53 59 60
f 53 60 54
f 55 61 62
f 55 62 56
f 56 62 63
f 56 63 57
f 57 63 64
f 57 64 58
f 58 64 65
f 58 65 59
f 59 65 66
f 59 66 60
f 61 67 68
f 61 68 62
f 62 68 69
f 62 69 63
f 63 69 70
f 63 70 64
f 64 70 71
f 64 71 65
f 65 71 72
f 65 72 66
f 48 47 73
f 48 73 74
f 74 73 75
f 74 75 76
f 76 75 77
f 76 77 78
f 78 77 79
f 78 79 80
f 80 79 12
f 80 12 11
f 47 54 81
f 47 81 73
f 73 81 82
f 73 82 75
f 75 82 83
f 75 83 77
f 77 83 84
f 77 84 79
f 79 84 18
f 79 18 12
f 54 60 85
f 54 85 81
f 81 85 86
f 81 86 82
f 82 86 87
f 82 87 83
f 83 87 88
f 83 88 84
f 84 88 24
f 84 24 18
f 60 66 89
f 60 89 85
f 85 89 90
f 85 90 86
f 86 90 91
f 86 91 87
f 87 91 92
f 87 92 88
f 88 92 30
f 88 30 24
f 66 72 93
f 66 93 89
f 89 93 94
f 89 94 90
f 90 94 95
f 90 95 91
f 91 95 96
f 91 96 92
f 92 96 36
f 92 36 30
f 37 97 98
f 37 98 38
f 97 99 100
f 97 100 98
f 99 101 102
f 99 102 100
f 101 103 104
f 101 104 102
f 103 1 4
f 103 4 104
f 38 98 105
f 38 105 49
f 98 100 106
f 98 106 105
f 100 102 107
f 100 107 106
f 102 104 108
f 102 108 107
f 104 4 14
f 104 14 108
f 49 105 109
f 49 109 55
f 105 106 110
f 105 110 109
f 106 107 111
f 106 111 110
f 107 108 112
f 107 112 111
f 108 14 20
f 108 20 112
f 55 109 113
f 55 113 61
f 109 110 114
f 109 114 113
f 110 111 115
f 110 115 114
f 111 112 116
f 111 116 115
f 112 20 26
f 112 26 116
f 61 113 117
f 61 117 67
f 113 114 118
f 113 118 117
f 114 115 119
f 114 119 118
f 115 116 120
f 115 120 119
f 116 26 32
f 116 32 120
f 67 117 121
f 67 121 68
f 117 118 122
f 117 122 121
f 118 119 123
f 118 123 122
f 119 120 124
f 119 124 123
f 120 32 31
f 120 31 124
f 68 121 125
f 68 125 69
f 121 122 126
f 121 126 125
f 122 123 127
f 122 127 126
f 123 124 128
f 123 128 127
f 124 31 33
f 124 33 128
f 69 125 129
f 69 129 70
f 125 126 130
f 125 130 129
f 126 127 131
f 126 131 130
f 127 128 132
f 127 132 131
f 128 33 34
f 128 34 132
f 70 129 133
f 70 133 71
f 129 130 134
f 129 134 133
f 130 131 135
f 130 135 134
f 131 132 136
f 131 136 135
f 132 34 35
f 132 35 136
f 71 133 93
f 71 93 72
f 133 134 94
f 133 94 93
f 134 135 95
f 134 95 94
f 135 136 96
f 135 96 95
f 136 35 36
f 136 36 96
f 37 40 137
f 37 137 97
f 97 137 138
f 97 138 99
f 99 138 139
f 99 139 101
f 101 139 140
f 101 140 103
f 103 140 2
f 103 2 1
f 40 42 141
f 40 141 137
f 137 141 142
f 137 142 138
f 138 142 143
f 138 143 139
f 139 143 144
f 139 144 140
f 140 144 5
f 140 5 2
f 42 44 145
f 42 145 141
f 141 145 146
f 141 146 142
f 142 146 147
f 142 147 143
f 143 147 148
f 143 148 144
f 144 148 7
f 144 7 5
f 44 46 149
f 44 149 145
f 145 149 150
f 145 150 146
f 146 150 151
f 146 151 147
f 147 151 152
f 147 152 148
f 148 152 9
f 148 9 7
f 46 48 74
f 46 74 149
f 149 74 76
f 149 76 150
f 150 76 78
f 150 78 151
f 151 78 80
f 151 80 152
f 152 80 11
f 152 11 9
