# Deterministic Milestone G fixture: plane
v 0 0 0
v 0.25 0 0
v 0.25 0.33333333333333331 0
v 0 0.33333333333333331 0
v 0.5 0 0
v 0.5 0.33333333333333331 0
v 0.75 0 0
v 0.75 0.33333333333333331 0
v 1 0 0
v 1 0.33333333333333331 0
v 0.25 0.66666666666666663 0
v 0 0.66666666666666663 0
v 0.5 0.66666666666666663 0
v 0.75 0.66666666666666663 0
v 1 0.66666666666666663 0
v 0.25 1 0
v 0 1 0
v 0.5 1 0
v 0.75 1 0
v 1 1 0
f 1 2 3
f 1 3 4
f 2 5 6
f 2 6 3
f 5 7 8
f 5 8 6
f 7 9 10
f 7 10 8
f 4 3 11
f 4 11 12
f 3 6 13
f 3 13 11
f 6 8 14
f 6 14 13
f 8 10 15
f 8 15 14
f 12 11 16
f 12 16 17
f 11 13 18
f 11 18 16
f 13 14 19
f 13 19 18
f 14 15 20
f 14 20 19
