# Deterministic Milestone G fixture: sphere_prescribed
v 0.57735026918962584 -0.57735026918962584 -0.57735026918962584
v 0.66666666666666663 -0.33333333333333331 -0.66666666666666663
v 0.81649658092772615 -0.40824829046386307 -0.40824829046386307
v 0.66666666666666663 -0.66666666666666663 -0.33333333333333331
v 0.70710678118654746 0 -0.70710678118654746
v 0.89442719099991586 0 -0.44721359549995793
v 0.66666666666666663 0.33333333333333331 -0.66666666666666663
v 0.81649658092772615 0.40824829046386307 -0.40824829046386307
v 0.57735026918962584 0.57735026918962584 -0.57735026918962584
v 0.66666666666666663 0.66666666666666663 -0.33333333333333331
v 0.89442719099991586 -0.44721359549995793 0
v 0.70710678118654746 -0.70710678118654746 0
v 1 0 0
v 0.89442719099991586 0.44721359549995793 0
v 0.70710678118654746 0.70710678118654746 0
v 0.81649658092772615 -0.40824829046386307 0.40824829046386307
v 0.66666666666666663 -0.66666666666666663 0.33333333333333331
v 0.89442719099991586 0 0.44721359549995793
v 0.81649658092772615 0.40824829046386307 0.40824829046386307
v 0.66666666666666663 0.66666666666666663 0.33333333333333331
v 0.66666666666666663 -0.33333333333333331 0.66666666666666663
v 0.57735026918962584 -0.57735026918962584 0.57735026918962584
v 0.70710678118654746 0 0.70710678118654746
v 0.66666666666666663 0.33333333333333331 0.66666666666666663
v 0.57735026918962584 0.57735026918962584 0.57735026918962584
v -0.57735026918962584 -0.57735026918962584 -0.57735026918962584
v -0.66666666666666663 -0.66666666666666663 -0.33333333333333331
v -0.81649658092772615 -0.40824829046386307 -0.40824829046386307
v -0.66666666666666663 -0.33333333333333331 -0.66666666666666663
v -0.89442719099991586 0 -0.44721359549995793
v -0.70710678118654746 0 -0.70710678118654746
v -0.81649658092772615 0.40824829046386307 -0.40824829046386307
v -0.66666666666666663 0.33333333333333331 -0.66666666666666663
v -0.66666666666666663 0.66666666666666663 -0.33333333333333331
v -0.57735026918962584 0.57735026918962584 -0.57735026918962584
v -0.70710678118654746 -0.70710678118654746 0
v -0.89442719099991586 -0.44721359549995793 0
v -1 0 0
v -0.89442719099991586 0.44721359549995793 0
v -0.70710678118654746 0.70710678118654746 0
v -0.66666666666666663 -0.66666666666666663 0.33333333333333331
v -0.81649658092772615 -0.40824829046386307 0.40824829046386307
v -0.89442719099991586 0 0.44721359549995793
v -0.81649658092772615 0.40824829046386307 0.40824829046386307
v -0.66666666666666663 0.66666666666666663 0.33333333333333331
v -0.57735026918962584 -0.57735026918962584 0.57735026918962584
v -0.66666666666666663 -0.33333333333333331 0.66666666666666663
v -0.70710678118654746 0 0.70710678118654746
v -0.66666666666666663 0.33333333333333331 0.66666666666666663
v -0.57735026918962584 0.57735026918962584 0.57735026918962584
v -0.40824829046386307 0.81649658092772615 -0.40824829046386307
v -0.33333333333333331 0.66666666666666663 -0.66666666666666663
v 0 0.89442719099991586 -0.44721359549995793
v 0 0.70710678118654746 -0.70710678118654746
v 0.40824829046386307 0.81649658092772615 -0.40824829046386307
v 0.33333333333333331 0.66666666666666663 -0.66666666666666663
v -0.44721359549995793 0.89442719099991586 0
v 0 1 0
v 0.44721359549995793 0.89442719099991586 0
v -0.40824829046386307 0.81649658092772615 0.40824829046386307
v 0 0.89442719099991586 0.44721359549995793
v 0.40824829046386307 0.81649658092772615 0.40824829046386307
v -0.33333333333333331 0.66666666666666663 0.66666666666666663
v 0 0.70710678118654746 0.70710678118654746
v 0.33333333333333331 0.66666666666666663 0.66666666666666663
v -0.33333333333333331 -0.66666666666666663 -0.66666666666666663
v -0.40824829046386307 -0.81649658092772615 -0.40824829046386307
v 0 -0.70710678118654746 -0.70710678118654746
v 0 -0.89442719099991586 -0.44721359549995793
v 0.33333333333333331 -0.66666666666666663 -0.66666666666666663
v 0.40824829046386307 -0.81649658092772615 -0.40824829046386307
v -0.44721359549995793 -0.89442719099991586 0
v 0 -1 0
v 0.44721359549995793 -0.89442719099991586 0
v -0.40824829046386307 -0.81649658092772615 0.40824829046386307
v 0 -0.89442719099991586 0.44721359549995793
v 0.40824829046386307 -0.81649658092772615 0.40824829046386307
v -0.33333333333333331 -0.66666666666666663 0.66666666666666663
v 0 -0.70710678118654746 0.70710678118654746
v 0.33333333333333331 -0.66666666666666663 0.66666666666666663
v -0.40824829046386307 -0.40824829046386307 0.81649658092772615
v 0 -0.44721359549995793 0.89442719099991586
v 0.40824829046386307 -0.40824829046386307 0.81649658092772615
v -0.44721359549995793 0 0.89442719099991586
v 0 0 1
v 0.44721359549995793 0 0.89442719099991586
v -0.40824829046386307 0.40824829046386307 0.81649658092772615
v 0 0.44721359549995793 0.89442719099991586
v 0.40824829046386307 0.40824829046386307 0.81649658092772615
v -0.40824829046386307 -0.40824829046386307 -0.81649658092772615
v 0 -0.44721359549995793 -0.89442719099991586
v 0.40824829046386307 -0.40824829046386307 -0.81649658092772615
v -0.44721359549995793 0 -0.89442719099991586
v 0 0 -1
v 0.44721359549995793 0 -0.89442719099991586
v -0.40824829046386307 0.40824829046386307 -0.81649658092772615
v 0 0.44721359549995793 -0.89442719099991586
v 0.40824829046386307 0.40824829046386307 -0.81649658092772615
f 1 2 3
f 1 3 4
f 2 5 6
f 2 6 3
f 5 7 8
f 5 8 6
f 7 9 10
f 7 10 8
f 4 3 11
f 4 11 12
f 3 6 13
f 3 13 11
f 6 8 14
f 6 14 13
f 8 10 15
f 8 15 14
f 12 11 16
f 12 16 17
f 11 13 18
f 11 18 16
f 13 14 19
f 13 19 18
f 14 15 20
f 14 20 19
f 17 16 21
f 17 21 22
f 16 18 23
f 16 23 21
f 18 19 24
f 18 24 23
f 19 20 25
f 19 25 24
f 26 27 28
f 26 28 29
f 29 28 30
f 29 30 31
f 31 30 32
f 31 32 33
f 33 32 34
f 33 34 35
f 27 36 37
f 27 37 28
f 28 37 38
f 28 38 30
f 30 38 39
f 30 39 32
f 32 39 40
f 32 40 34
f 36 41 42
f 36 42 37
f 37 42 43
f 37 43 38
f 38 43 44
f 38 44 39
f 39 44 45
f 39 45 40
f 41 46 47
f 41 47 42
f 42 47 48
f 42 48 43
f 43 48 49
f 43 49 44
f 44 49 50
f 44 50 45
f 35 34 51
f 35 51 52
f 52 51 53
f 52 53 54
f 54 53 55
f 54 55 56
f 56 55 10
f 56 10 9
f 34 40 57
f 34 57 51
f 51 57 58
f 51 58 53
f 53 58 59
f 53 59 55
f 55 59 15
f 55 15 10
f 40 45 60
f 40 60 57
f 57 60 61
f 57 61 58
f 58 61 62
f 58 62 59
f 59 62 20
f 59 20 15
f 45 50 63
f 45 63 60
f 60 63 64
f 60 64 61
f 61 64 65
f 61 65 62
f 62 65 25
f 62 25 20
f 26 66 67
f 26 67 27
f 66 68 69
f 66 69 67
f 68 70 71
f 68 71 69
f 70 1 4
f 70 4 71
f 27 67 72
f 27 72 36
f 67 69 73
f 67 73 72
f 69 71 74
f 69 74 73
f 71 4 12
f 71 12 74
f 36 72 75
f 36 75 41
f 72 73 76
f 72 76 75
f 73 74 77
f 73 77 76
f 74 12 17
f 74 17 77
f 41 75 78
f 41 78 46
f 75 76 79
f 75 79 78
f 76 77 80
f 76 80 79
f 77 17 22
f 77 22 80
f 46 78 81
f 46 81 47
f 78 79 82
f 78 82 81
f 79 80 83
f 79 83 82
f 80 22 21
f 80 21 83
f 47 81 84
f 47 84 48
f 81 82 85
f 81 85 84
f 82 83 86
f 82 86 85
f 83 21 23
f 83 23 86
f 48 84 87
f 48 87 49
f 84 85 88
f 84 88 87
f 85 86 89
f 85 89 88
f 86 23 24
f 86 24 89
f 49 87 63
f 49 63 50
f 87 88 64
f 87 64 63
f 88 89 65
f 88 65 64
f 89 24 25
f 89 25 65
f 26 29 90
f 26 90 66
f 66 90 91
f 66 91 68
f 68 91 92
f 68 92 70
f 70 92 2
f 70 2 1
f 29 31 93
f 29 93 90
f 90 93 94
f 90 94 91
f 91 94 95
f 91 95 92
f 92 95 5
f 92 5 2
f 31 33 96
f 31 96 93
f 93 96 97
f 93 97 94
f 94 97 98
f 94 98 95
f 95 98 7
f 95 7 5
f 33 35 52
f 33 52 96
f 96 52 54
f 96 54 97
f 97 54 56
f 97 56 98
f 98 56 9
f 98 9 7
