# Deterministic Milestone G fixture: thin_bent_tube
v -1.2162236636408617 0 -1.2162236636408619
v -1.1953821076328959 0.10999999999999999 -1.1953821076328963
v -0.52240113637498087 0.10999999999999999 -1.6077853772229236
v -0.53150923032490938 0 -1.6358172080276643
v -1.1384419177103415 0.1905255888325765 -1.1384419177103418
v -0.49751736094366522 0.1905255888325765 -1.5312009912351974
v -1.0606601717798212 0.22 -1.0606601717798214
v -0.46352549156242101 0.22 -1.4265847744427305
v -0.98287842584930096 0.1905255888325765 -0.98287842584930118
v -0.4295336221811768 0.1905255888325765 -1.3219685576502636
v -0.9259382359267464 0.10999999999999999 -0.92593823592674662
v -0.40464984674986121 0.10999999999999999 -1.2453841716625373
v -0.90509667991878073 2.6942229581241769e-17 -0.90509667991878096
v -0.39554175279993259 2.6942229581241769e-17 -1.2173523408577966
v -0.9259382359267464 -0.10999999999999995 -0.92593823592674662
v -0.40464984674986115 -0.10999999999999995 -1.2453841716625373
v -0.98287842584930085 -0.19052558883257645 -0.98287842584930107
v -0.42953362218117674 -0.19052558883257645 -1.3219685576502636
v -1.0606601717798212 -0.22 -1.0606601717798214
v -0.46352549156242101 -0.22 -1.4265847744427305
v -1.1384419177103415 -0.1905255888325765 -1.1384419177103418
v -0.49751736094366522 -0.1905255888325765 -1.5312009912351974
v -1.1953821076328959 -0.1100000000000001 -1.1953821076328961
v -0.52240113637498087 -0.1100000000000001 -1.6077853772229234
v 0.2644564661258455 0.10999999999999999 -1.6697124135676655
v 0.26906727986919721 0 -1.6988239458236369
v 0.25185948871477176 0.1905255888325765 -1.5901782283581718
v 0.23465169756034637 0.22 -1.4815325108927067
v 0.21744390640592098 0.1905255888325765 -1.3728867934272415
v 0.20484692899484727 0.10999999999999999 -1.2933526082177478
v 0.20023611525149557 2.6942229581241769e-17 -1.2642410759617764
v 0.20484692899484727 -0.10999999999999995 -1.2933526082177476
v 0.21744390640592096 -0.19052558883257645 -1.3728867934272415
v 0.23465169756034637 -0.22 -1.4815325108927067
v 0.25185948871477176 -0.1905255888325765 -1.5901782283581718
v 0.26445646612584545 -0.1100000000000001 -1.6697124135676655
v 0.99366600973883767 0.10999999999999999 -1.3676639307912692
v 1.0109906339430539 0 -1.3915092303249097
v 0.94633425619088174 0.1905255888325765 -1.3025173609436653
v 0.88167787843870971 0.22 -1.2135254915624212
v 0.81702150068653767 0.1905255888325765 -1.124533622181177
v 0.76968974713858174 0.10999999999999999 -1.0593870523335731
v 0.75236512293436564 2.6942229581241769e-17 -1.0355417527999327
v 0.76968974713858174 -0.10999999999999995 -1.0593870523335731
v 0.81702150068653756 -0.19052558883257645 -1.1245336221811768
v 0.88167787843870971 -0.22 -1.2135254915624212
v 0.94633425619088174 -0.1905255888325765 -1.3025173609436653
v 0.99366600973883767 -0.1100000000000001 -1.3676639307912692
v 1.506269328957208 0.10999999999999999 -0.76748255689659295
v 1.5325312216039928 0 -0.78086365955202042
v 1.4345205039432725 0.1905255888325765 -0.73092470458067027
v 1.3365097862825519 0.22 -0.68098574960932012
v 1.2384990686218316 0.1905255888325765 -0.63104679463796998
v 1.1667502436078958 0.10999999999999999 -0.5944889423220473
v 1.140488350961111 2.6942229581241769e-17 -0.58110783966661983
v 1.1667502436078958 -0.10999999999999995 -0.5944889423220473
v 1.2384990686218313 -0.19052558883257645 -0.63104679463796998
v 1.3365097862825519 -0.22 -0.68098574960932012
v 1.4345205039432725 -0.1905255888325765 -0.73092470458067027
v 1.506269328957208 -0.1100000000000001 -0.76748255689659295
v 1.6905255888325765 0.10999999999999999 0
v 1.72 0 0
v 1.6100000000000001 0.1905255888325765 0
v 1.5 0.22 0
v 1.3900000000000001 0.1905255888325765 0
v 1.3094744111674235 0.10999999999999999 0
v 1.28 2.6942229581241769e-17 0
v 1.3094744111674235 -0.10999999999999995 0
v 1.3899999999999999 -0.19052558883257645 0
v 1.5 -0.22 0
v 1.6100000000000001 -0.1905255888325765 0
v 1.6905255888325765 -0.1100000000000001 0
v 1.506269328957208 0.10999999999999999 0.76748255689659295
v 1.5325312216039928 0 0.78086365955202042
v 1.4345205039432725 0.1905255888325765 0.73092470458067027
v 1.3365097862825519 0.22 0.68098574960932012
v 1.2384990686218316 0.1905255888325765 0.63104679463796998
v 1.1667502436078958 0.10999999999999999 0.5944889423220473
v 1.140488350961111 2.6942229581241769e-17 0.58110783966661983
v 1.1667502436078958 -0.10999999999999995 0.5944889423220473
v 1.2384990686218313 -0.19052558883257645 0.63104679463796998
v 1.3365097862825519 -0.22 0.68098574960932012
v 1.4345205039432725 -0.1905255888325765 0.73092470458067027
v 1.506269328957208 -0.1100000000000001 0.76748255689659295
v 0.99366600973883767 0.10999999999999999 1.3676639307912692
v 1.0109906339430539 0 1.3915092303249097
v 0.94633425619088174 0.1905255888325765 1.3025173609436653
v 0.88167787843870971 0.22 1.2135254915624212
v 0.81702150068653767 0.1905255888325765 1.124533622181177
v 0.76968974713858174 0.10999999999999999 1.0593870523335731
v 0.75236512293436564 2.6942229581241769e-17 1.0355417527999327
v 0.76968974713858174 -0.10999999999999995 1.0593870523335731
v 0.81702150068653756 -0.19052558883257645 1.1245336221811768
v 0.88167787843870971 -0.22 1.2135254915624212
v 0.94633425619088174 -0.1905255888325765 1.3025173609436653
v 0.99366600973883767 -0.1100000000000001 1.3676639307912692
v 0.2644564661258455 0.10999999999999999 1.6697124135676655
v 0.26906727986919721 0 1.6988239458236369
v 0.25185948871477176 0.1905255888325765 1.5901782283581718
v 0.23465169756034637 0.22 1.4815325108927067
v 0.21744390640592098 0.1905255888325765 1.3728867934272415
v 0.20484692899484727 0.10999999999999999 1.2933526082177478
v 0.20023611525149557 2.6942229581241769e-17 1.2642410759617764
v 0.20484692899484727 -0.10999999999999995 1.2933526082177476
v 0.21744390640592096 -0.19052558883257645 1.3728867934272415
v 0.23465169756034637 -0.22 1.4815325108927067
v 0.25185948871477176 -0.1905255888325765 1.5901782283581718
v 0.26445646612584545 -0.1100000000000001 1.6697124135676655
v -0.52240113637498087 0.10999999999999999 1.6077853772229236
v -0.53150923032490938 0 1.6358172080276643
v -0.49751736094366522 0.1905255888325765 1.5312009912351974
v -0.46352549156242101 0.22 1.4265847744427305
v -0.4295336221811768 0.1905255888325765 1.3219685576502636
v -0.40464984674986121 0.10999999999999999 1.2453841716625373
v -0.39554175279993259 2.6942229581241769e-17 1.2173523408577966
v -0.40464984674986115 -0.10999999999999995 1.2453841716625373
v -0.42953362218117674 -0.19052558883257645 1.3219685576502636
v -0.46352549156242101 -0.22 1.4265847744427305
v -0.49751736094366522 -0.1905255888325765 1.5312009912351974
v -0.52240113637498087 -0.1100000000000001 1.6077853772229234
v -1.1953821076328959 0.10999999999999999 1.1953821076328963
v -1.2162236636408617 0 1.2162236636408619
v -1.1384419177103415 0.1905255888325765 1.1384419177103418
v -1.0606601717798212 0.22 1.0606601717798214
v -0.98287842584930096 0.1905255888325765 0.98287842584930118
v -0.9259382359267464 0.10999999999999999 0.92593823592674662
v -0.90509667991878073 2.6942229581241769e-17 0.90509667991878096
v -0.9259382359267464 -0.10999999999999995 0.92593823592674662
v -0.98287842584930085 -0.19052558883257645 0.98287842584930107
v -1.0606601717798212 -0.22 1.0606601717798214
v -1.1384419177103415 -0.1905255888325765 1.1384419177103418
v -1.1953821076328959 -0.1100000000000001 1.1953821076328961
f 1 2 3
f 1 3 4
f 2 5 6
f 2 6 3
f 5 7 8
f 5 8 6
f 7 9 10
f 7 10 8
f 9 11 12
f 9 12 10
f 11 13 14
f 11 14 12
f 13 15 16
f 13 16 14
f 15 17 18
f 15 18 16
f 17 19 20
f 17 20 18
f 19 21 22
f 19 22 20
f 21 23 24
f 21 24 22
f 23 1 4
f 23 4 24
f 4 3 25
f 4 25 26
f 3 6 27
f 3 27 25
f 6 8 28
f 6 28 27
f 8 10 29
f 8 29 28
f 10 12 30
f 10 30 29
f 12 14 31
f 12 31 30
f 14 16 32
f 14 32 31
f 16 18 33
f 16 33 32
f 18 20 34
f 18 34 33
f 20 22 35
f 20 35 34
f 22 24 36
f 22 36 35
f 24 4 26
f 24 26 36
f 26 25 37
f 26 37 38
f 25 27 39
f 25 39 37
f 27 28 40
f 27 40 39
f 28 29 41
f 28 41 40
f 29 30 42
f 29 42 41
f 30 31 43
f 30 43 42
f 31 32 44
f 31 44 43
f 32 33 45
f 32 45 44
f 33 34 46
f 33 46 45
f 34 35 47
f 34 47 46
f 35 36 48
f 35 48 47
f 36 26 38
f 36 38 48
f 38 37 49
f 38 49 50
f 37 39 51
f 37 51 49
f 39 40 52
f 39 52 51
f 40 41 53
f 40 53 52
f 41 42 54
f 41 54 53
f 42 43 55
f 42 55 54
f 43 44 56
f 43 56 55
f 44 45 57
f 44 57 56
f 45 46 58
f 45 58 57
f 46 47 59
f 46 59 58
f 47 48 60
f 47 60 59
f 48 38 50
f 48 50 60
f 50 49 61
f 50 61 62
f 49 51 63
f 49 63 61
f 51 52 64
f 51 64 63
f 52 53 65
f 52 65 64
f 53 54 66
f 53 66 65
f 54 55 67
f 54 67 66
f 55 56 68
f 55 68 67
f 56 57 69
f 56 69 68
f 57 58 70
f 57 70 69
f 58 59 71
f 58 71 70
f 59 60 72
f 59 72 71
f 60 50 62
f 60 62 72
f 62 61 73
f 62 73 74
f 61 63 75
f 61 75 73
f 63 64 76
f 63 76 75
f 64 65 77
f 64 77 76
f 65 66 78
f 65 78 77
f 66 67 79
f 66 79 78
f 67 68 80
f 67 80 79
f 68 69 81
f 68 81 80
f 69 70 82
f 69 82 81
f 70 71 83
f 70 83 82
f 71 72 84
f 71 84 83
f 72 62 74
f 72 74 84
f 74 73 85
f 74 85 86
f 73 75 87
f 73 87 85
f 75 76 88
f 75 88 87
f 76 77 89
f 76 89 88
f 77 78 90
f 77 90 89
f 78 79 91
f 78 91 90
f 79 80 92
f 79 92 91
f 80 81 93
f 80 93 92
f 81 82 94
f 81 94 93
f 82 83 95
f 82 95 94
f 83 84 96
f 83 96 95
f 84 74 86
f 84 86 96
f 86 85 97
f 86 97 98
f 85 87 99
f 85 99 97
f 87 88 100
f 87 100 99
f 88 89 101
f 88 101 100
f 89 90 102
f 89 102 101
f 90 91 103
f 90 103 102
f 91 92 104
f 91 104 103
f 92 93 105
f 92 105 104
f 93 94 106
f 93 106 105
f 94 95 107
f 94 107 106
f 95 96 108
f 95 108 107
f 96 86 98
f 96 98 108
f 98 97 109
f 98 109 110
f 97 99 111
f 97 111 109
f 99 100 112
f 99 112 111
f 100 101 113
f 100 113 112
f 101 102 114
f 101 114 113
f 102 103 115
f 102 115 114
f 103 104 116
f 103 116 115
f 104 105 117
f 104 117 116
f 105 106 118
f 105 118 117
f 106 107 119
f 106 119 118
f 107 108 120
f 107 120 119
f 108 98 110
f 108 110 120
f 110 109 121
f 110 121 122
f 109 111 123
f 109 123 121
f 111 112 124
f 111 124 123
f 112 113 125
f 112 125 124
f 113 114 126
f 113 126 125
f 114 115 127
f 114 127 126
f 115 116 128
f 115 128 127
f 116 117 129
f 116 129 128
f 117 118 130
f 117 130 129
f 118 119 131
f 118 131 130
f 119 120 132
f 119 132 131
f 120 110 122
f 120 122 132
