# Deterministic Milestone G fixture: torus
v 2.1500000000000004 0 0
v 1.8619546181365436 1.075 0
v 1.6237976320958227 0.9375 0.47631397208144127
v 1.8750000000000002 0 0.47631397208144127
v 1.0750000000000004 1.8619546181365434 0
v 0.93750000000000033 1.6237976320958225 0.47631397208144127
v 1.3164953090834049e-16 2.1500000000000004 0
v 1.1481063742006437e-16 1.8750000000000002 0.47631397208144127
v -1.0749999999999997 1.8619546181365436 0
v -0.93749999999999967 1.6237976320958227 0.47631397208144127
v -1.8619546181365436 1.075 0
v -1.6237976320958227 0.9375 0.47631397208144127
v -2.1500000000000004 2.6329906181668097e-16 0
v -1.8750000000000002 2.2962127484012875e-16 0.47631397208144127
v -1.8619546181365438 -1.0749999999999995 0
v -1.623797632095823 -0.93749999999999956 0.47631397208144127
v -1.0750000000000011 -1.8619546181365427 0
v -0.937500000000001 -1.6237976320958221 0.47631397208144127
v -3.9494859272502143e-16 -2.1500000000000004 0
v -3.444319122601931e-16 -1.8750000000000002 0.47631397208144127
v 1.0750000000000004 -1.8619546181365434 0
v 0.93750000000000033 -1.6237976320958225 0.47631397208144127
v 1.8619546181365427 -1.0750000000000011 0
v 1.6237976320958221 -0.937500000000001 0.47631397208144127
v 1.1474836600143814 0.66249999999999998 0.47631397208144133
v 1.3250000000000002 0 0.47631397208144133
v 0.6625000000000002 1.1474836600143814 0.47631397208144133
v 8.1132850443512161e-17 1.3250000000000002 0.47631397208144133
v -0.66249999999999976 1.1474836600143814 0.47631397208144133
v -1.1474836600143814 0.66249999999999998 0.47631397208144133
v -1.3250000000000002 1.6226570088702432e-16 0.47631397208144133
v -1.1474836600143816 -0.66249999999999976 0.47631397208144133
v -0.66250000000000064 -1.147483660014381 0.47631397208144133
v -2.4339855133053647e-16 -1.3250000000000002 0.47631397208144133
v 0.6625000000000002 -1.1474836600143814 0.47631397208144133
v 1.147483660014381 -0.66250000000000064 0.47631397208144133
v 0.90932667397366063 0.52499999999999991 6.7355573953104437e-17
v 1.05 0 6.7355573953104437e-17
v 0.52500000000000013 0.90932667397366052 6.7355573953104437e-17
v 6.4293956955236049e-17 1.05 6.7355573953104437e-17
v -0.5249999999999998 0.90932667397366063 6.7355573953104437e-17
v -0.90932667397366063 0.52499999999999991 6.7355573953104437e-17
v -1.05 1.285879139104721e-16 6.7355573953104437e-17
v -0.90932667397366085 -0.52499999999999969 6.7355573953104437e-17
v -0.52500000000000047 -0.90932667397366029 6.7355573953104437e-17
v -1.9288187086570813e-16 -1.05 6.7355573953104437e-17
v 0.52500000000000013 -0.90932667397366052 6.7355573953104437e-17
v 0.90932667397366029 -0.52500000000000047 6.7355573953104437e-17
v 1.147483660014381 0.66249999999999976 -0.47631397208144116
v 1.3249999999999997 0 -0.47631397208144116
v 0.66249999999999998 1.147483660014381 -0.47631397208144116
v 8.1132850443512137e-17 1.3249999999999997 -0.47631397208144116
v -0.66249999999999953 1.147483660014381 -0.47631397208144116
v -1.147483660014381 0.66249999999999976 -0.47631397208144116
v -1.3249999999999997 1.6226570088702427e-16 -0.47631397208144116
v -1.1474836600143812 -0.66249999999999953 -0.47631397208144116
v -0.66250000000000042 -1.1474836600143805 -0.47631397208144116
v -2.4339855133053637e-16 -1.3249999999999997 -0.47631397208144116
v 0.66249999999999998 -1.147483660014381 -0.47631397208144116
v 1.1474836600143805 -0.66250000000000042 -0.47631397208144116
v 1.6237976320958227 0.9375 -0.47631397208144127
v 1.8750000000000002 0 -0.47631397208144127
v 0.93750000000000033 1.6237976320958225 -0.47631397208144127
v 1.1481063742006437e-16 1.8750000000000002 -0.47631397208144127
v -0.93749999999999967 1.6237976320958227 -0.47631397208144127
v -1.6237976320958227 0.9375 -0.47631397208144127
v -1.8750000000000002 2.2962127484012875e-16 -0.47631397208144127
v -1.623797632095823 -0.93749999999999956 -0.47631397208144127
v -0.937500000000001 -1.6237976320958221 -0.47631397208144127
v -3.444319122601931e-16 -1.8750000000000002 -0.47631397208144127
v 0.93750000000000033 -1.6237976320958225 -0.47631397208144127
v 1.6237976320958221 -0.937500000000001 -0.47631397208144127
f 1 2 3
f 1 3 4
f 2 5 6
f 2 6 3
f 5 7 8
f 5 8 6
f 7 9 10
f 7 10 8
f 9 11 12
f 9 12 10
f 11 13 14
f 11 14 12
f 13 15 16
f 13 16 14
f 15 17 18
f 15 18 16
f 17 19 20
f 17 20 18
f 19 21 22
f 19 22 20
f 21 23 24
f 21 24 22
f 23 1 4
f 23 4 24
f 4 3 25
f 4 25 26
f 3 6 27
f 3 27 25
f 6 8 28
f 6 28 27
f 8 10 29
f 8 29 28
f 10 12 30
f 10 30 29
f 12 14 31
f 12 31 30
f 14 16 32
f 14 32 31
f 16 18 33
f 16 33 32
f 18 20 34
f 18 34 33
f 20 22 35
f 20 35 34
f 22 24 36
f 22 36 35
f 24 4 26
f 24 26 36
f 26 25 37
f 26 37 38
f 25 27 39
f 25 39 37
f 27 28 40
f 27 40 39
f 28 29 41
f 28 41 40
f 29 30 42
f 29 42 41
f 30 31 43
f 30 43 42
f 31 32 44
f 31 44 43
f 32 33 45
f 32 45 44
f 33 34 46
f 33 46 45
f 34 35 47
f 34 47 46
f 35 36 48
f 35 48 47
f 36 26 38
f 36 38 48
f 38 37 49
f 38 49 50
f 37 39 51
f 37 51 49
f 39 40 52
f 39 52 51
f 40 41 53
f 40 53 52
f 41 42 54
f 41 54 53
f 42 43 55
f 42 55 54
f 43 44 56
f 43 56 55
f 44 45 57
f 44 57 56
f 45 46 58
f 45 58 57
f 46 47 59
f 46 59 58
f 47 48 60
f 47 60 59
f 48 38 50
f 48 50 60
f 50 49 61
f 50 61 62
f 49 51 63
f 49 63 61
f 51 52 64
f 51 64 63
f 52 53 65
f 52 65 64
f 53 54 66
f 53 66 65
f 54 55 67
f 54 67 66
f 55 56 68
f 55 68 67
f 56 57 69
f 56 69 68
f 57 58 70
f 57 70 69
f 58 59 71
f 58 71 70
f 59 60 72
f 59 72 71
f 60 50 62
f 60 62 72
f 62 61 2
f 62 2 1
f 61 63 5
f 61 5 2
f 63 64 7
f 63 7 5
f 64 65 9
f 64 9 7
f 65 66 11
f 65 11 9
f 66 67 13
f 66 13 11
f 67 68 15
f 67 15 13
f 68 69 17
f 68 17 15
f 69 70 19
f 69 19 17
f 70 71 21
f 70 21 19
f 71 72 23
f 71 23 21
f 72 62 1
f 72 1 23
